M48
INCH,TZ
T01C0.0150
T02C0.0394
T03C0.0300
T04C0.0400
T05C0.1181
T06C0.0276
%
T01
X+13500Y-12000
X+14500Y-9500
X+11500Y-2000
X+10500Y-3000
X+17750Y-2500
X+10000Y+2500
X+9000Y-2000
X+21250Y+750
T02
X+13000Y-20000
X+14000Y-20000
X+15000Y-20000
X+16000Y-20000
X+17000Y-20000
X+18000Y-20000
X+20000Y-20000
X+21000Y-20000
X+22000Y-20000
X+23000Y-20000
X+24000Y-20000
X+25000Y-20000
X+9400Y-1000
X+10400Y-1000
X+11400Y-1000
X+12400Y-1000
X+13400Y-1000
X+14400Y-1000
X+15400Y-1000
X+16400Y-1000
X+18000Y-1000
X+19000Y-1000
X+20000Y-1000
X+21000Y-1000
X+22000Y-1000
X+23000Y-1000
X+24000Y-1000
X+25000Y-1000
X+6019Y+1783
X+7003Y+1783
X+7987Y+1783
X+21111Y+1752
X+22096Y+1752
X+23080Y+1752
X+1439Y-20011
X+2424Y-20011
X+3408Y-20011
X+8149Y-19999
X+9134Y-19999
X+10118Y-19999
X+18876Y-4351
X+19861Y-4351
X+20845Y-4351
X+21829Y-4351
X+6181Y-4375
X+7165Y-4375
X+8150Y-4375
X+11147Y-4363
X+12131Y-4363
X+13116Y-4363
X+13450Y-18000
X+14434Y-18000
X+8462Y-11729
X+8462Y-12729
X+8462Y-13729
X+8462Y-14729
X+8462Y-15729
X+8462Y-16729
X+11378Y+1772
X+12362Y+1772
X+13346Y+1772
X+14331Y+1772
X+15315Y+1772
X+16299Y+1772
X+25100Y-8350
X+24100Y-8350
X+23100Y-8350
X+22100Y-8350
X+21100Y-8350
X+20100Y-8350
X+19100Y-8350
X+18100Y-8350
X+18100Y-15450
X+19100Y-15450
X+20100Y-15450
X+21100Y-15450
X+22100Y-15450
X+23100Y-15450
X+24100Y-15450
X+25100Y-15450
T03
X+15160Y-2967
X+15160Y-6967
X+24400Y-6630
X+24400Y-2630
X+8903Y-6533
X+12903Y-6533
X+8950Y-8250
X+12950Y-8250
X+5150Y-9650
X+9150Y-9650
T04
X+6365Y-6681
X+7365Y-6681
X+1183Y-16760
X+2183Y-16760
X+3183Y-16760
X+1050Y-9900
X+2050Y-9900
X+3050Y-9900
T05
X+26024Y-7008
X+26040Y-18050
X+5512Y-20000
T06
X+1258Y-13800
X+2242Y-13800
X+4508Y-12050
X+5492Y-12050
M30
