G04 PROTEUS RS274X GERBER FILE*
%FSLAX26Y26*%
%MOIN*%
G01*
%ADD10C,0.010000*%
%ADD11C,0.020000*%
%ADD12C,0.025000*%
%ADD13C,0.030000*%
%AMDIL004*
4,1,8,
-0.030000,0.038000,-0.018000,0.050000,0.018000,0.050000,0.030000,0.038000,0.030000,-0.038000,
0.018000,-0.050000,-0.018000,-0.050000,-0.030000,-0.038000,-0.030000,0.038000,
0*%
%ADD14DIL004*%
%AMDIL005*
4,1,8,
-0.050000,0.018000,-0.038000,0.030000,0.038000,0.030000,0.050000,0.018000,0.050000,-0.018000,
0.038000,-0.030000,-0.038000,-0.030000,-0.050000,-0.018000,-0.050000,0.018000,
0*%
%ADD15DIL005*%
%ADD16C,0.070000*%
%ADD17R,0.080000X0.080000*%
%ADD18R,0.041339X0.041339*%
%ADD19C,0.010000*%
%ADD70C,0.041339*%
%ADD20C,0.008000*%
G36*
X+2582250Y+281446D02*
X+2578320Y-520449D01*
X+2583925Y-527175D01*
X+2676762Y-638580D01*
X+2672884Y-1957236D01*
X+2582894Y-2032227D01*
X+2578362Y-2041903D01*
X+2578362Y-2271276D01*
X+24000Y-2271276D01*
X+24000Y-1620606D01*
X+62283Y-1658890D01*
X+62283Y-1731999D01*
X+217363Y-1731999D01*
X+217363Y-1936142D01*
X+197363Y-1936142D01*
X+197363Y-2066141D01*
X+287362Y-2066141D01*
X+287362Y-1936142D01*
X+267362Y-1936142D01*
X+267362Y-1731999D01*
X+374283Y-1731999D01*
X+374283Y-1620000D01*
X+243283Y-1620000D01*
X+243283Y-1560355D01*
X+249212Y-1554425D01*
X+249212Y-1407500D01*
X+385603Y-1407500D01*
X+549213Y-1243890D01*
X+572500Y-1267178D01*
X+572500Y-1361390D01*
X+697500Y-1486390D01*
X+697500Y-1698036D01*
X+885855Y-1886390D01*
X+885855Y-1934930D01*
X+868355Y-1934930D01*
X+868355Y-2064929D01*
X+888355Y-2064929D01*
X+888355Y-2098709D01*
X+964645Y-2175000D01*
X+1560355Y-2175000D01*
X+1625000Y-2110355D01*
X+1625000Y-2065000D01*
X+1645000Y-2065000D01*
X+1645000Y-2025000D01*
X+1655000Y-2025000D01*
X+1655000Y-2065000D01*
X+1745000Y-2065000D01*
X+1745000Y-1935000D01*
X+1655000Y-1935000D01*
X+1655000Y-1975000D01*
X+1645000Y-1975000D01*
X+1645000Y-1935000D01*
X+1555000Y-1935000D01*
X+1555000Y-2065000D01*
X+1575000Y-2065000D01*
X+1575000Y-2089645D01*
X+1539645Y-2125000D01*
X+985355Y-2125000D01*
X+938354Y-2078000D01*
X+938354Y-2064929D01*
X+958354Y-2064929D01*
X+958354Y-1934930D01*
X+940854Y-1934930D01*
X+940854Y-1863610D01*
X+795117Y-1717873D01*
X+911181Y-1717873D01*
X+911181Y-1627874D01*
X+781181Y-1627874D01*
X+781181Y-1703937D01*
X+752500Y-1675256D01*
X+752500Y-1500000D01*
X+781181Y-1500000D01*
X+781181Y-1517873D01*
X+911181Y-1517873D01*
X+911181Y-1497873D01*
X+935355Y-1497873D01*
X+1000000Y-1433228D01*
X+1000000Y-1014645D01*
X+966000Y-980645D01*
X+966000Y-943875D01*
X+936125Y-914000D01*
X+893875Y-914000D01*
X+864000Y-943875D01*
X+864000Y-986125D01*
X+893875Y-1016000D01*
X+930645Y-1016000D01*
X+950000Y-1035355D01*
X+950000Y-1412519D01*
X+914645Y-1447874D01*
X+911181Y-1447874D01*
X+911181Y-1442103D01*
X+945000Y-1408284D01*
X+945000Y-1264589D01*
X+933284Y-1252874D01*
X+911181Y-1252874D01*
X+911181Y-1227874D01*
X+781181Y-1227874D01*
X+781181Y-1302898D01*
X+770000Y-1291716D01*
X+770000Y-808284D01*
X+803283Y-775000D01*
X+872876Y-775000D01*
X+844000Y-803875D01*
X+844000Y-846125D01*
X+873875Y-876000D01*
X+916125Y-876000D01*
X+946000Y-846125D01*
X+946000Y-845000D01*
X+1133284Y-845000D01*
X+1183937Y-794347D01*
X+1183937Y-501338D01*
X+1185650Y-501338D01*
X+1185650Y-624540D01*
X+1288609Y-727500D01*
X+1371957Y-727500D01*
X+1472579Y-725333D01*
X+1488524Y-741278D01*
X+1488524Y-847586D01*
X+1472500Y-863610D01*
X+1472500Y-928660D01*
X+1462841Y-919000D01*
X+1437159Y-919000D01*
X+1419000Y-937159D01*
X+1419000Y-945645D01*
X+1418426Y-946220D01*
X+1418426Y-1735000D01*
X+1398426Y-1735000D01*
X+1398426Y-1864999D01*
X+1472500Y-1864999D01*
X+1472500Y-1935000D01*
X+1455000Y-1935000D01*
X+1455000Y-2055000D01*
X+1445000Y-2055000D01*
X+1445000Y-1935000D01*
X+1355000Y-1935000D01*
X+1355000Y-2055000D01*
X+1345000Y-2055000D01*
X+1345000Y-1935000D01*
X+1255000Y-1935000D01*
X+1255000Y-2055000D01*
X+1056779Y-2055000D01*
X+1056779Y-1934930D01*
X+1039279Y-1934930D01*
X+1039279Y-1588610D01*
X+996043Y-1545374D01*
X+911181Y-1545374D01*
X+911181Y-1527874D01*
X+781181Y-1527874D01*
X+781181Y-1617873D01*
X+911181Y-1617873D01*
X+911181Y-1600373D01*
X+973263Y-1600373D01*
X+984280Y-1611390D01*
X+984280Y-1934930D01*
X+966780Y-1934930D01*
X+966780Y-2064929D01*
X+991780Y-2064929D01*
X+991780Y-2083284D01*
X+1003496Y-2095000D01*
X+1508284Y-2095000D01*
X+1520000Y-2083284D01*
X+1520000Y-2065000D01*
X+1545000Y-2065000D01*
X+1545000Y-1935000D01*
X+1527500Y-1935000D01*
X+1527500Y-886390D01*
X+1543523Y-870367D01*
X+1543523Y-741278D01*
X+1555000Y-729801D01*
X+1555000Y-1858284D01*
X+1591716Y-1895000D01*
X+2266716Y-1895000D01*
X+2280000Y-1908284D01*
X+2280000Y-1935000D01*
X+2255000Y-1935000D01*
X+2255000Y-2055000D01*
X+2245000Y-2055000D01*
X+2245000Y-1935000D01*
X+2155000Y-1935000D01*
X+2155000Y-2065000D01*
X+2180000Y-2065000D01*
X+2180000Y-2083284D01*
X+2191716Y-2095000D01*
X+2358284Y-2095000D01*
X+2370000Y-2083284D01*
X+2370000Y-2065000D01*
X+2445000Y-2065000D01*
X+2445000Y-1935000D01*
X+2420000Y-1935000D01*
X+2420000Y-1816716D01*
X+2398283Y-1795000D01*
X+2466716Y-1795000D01*
X+2480000Y-1808284D01*
X+2480000Y-1935000D01*
X+2455000Y-1935000D01*
X+2455000Y-2065000D01*
X+2545000Y-2065000D01*
X+2545000Y-1935000D01*
X+2520000Y-1935000D01*
X+2520000Y-1791716D01*
X+2483284Y-1755000D01*
X+1758284Y-1755000D01*
X+1744999Y-1741716D01*
X+1744999Y-1648283D01*
X+1766716Y-1670000D01*
X+2483284Y-1670000D01*
X+2530000Y-1623284D01*
X+2530000Y-1610000D01*
X+2555000Y-1610000D01*
X+2555000Y-1480000D01*
X+2465000Y-1480000D01*
X+2465000Y-1610000D01*
X+2486717Y-1610000D01*
X+2466716Y-1630000D01*
X+1783284Y-1630000D01*
X+1770000Y-1616716D01*
X+1770000Y-1610000D01*
X+1855000Y-1610000D01*
X+1855000Y-1480000D01*
X+1770000Y-1480000D01*
X+1770000Y-900000D01*
X+1855000Y-900000D01*
X+1855000Y-770000D01*
X+1770000Y-770000D01*
X+1770000Y-283284D01*
X+1772284Y-281000D01*
X+1787841Y-281000D01*
X+1806000Y-262841D01*
X+1806000Y-237159D01*
X+1787841Y-219000D01*
X+1762159Y-219000D01*
X+1744999Y-236161D01*
X+1744999Y+33284D01*
X+1723283Y+55000D01*
X+1866716Y+55000D01*
X+1880000Y+41716D01*
X+1880000Y-35000D01*
X+1855000Y-35000D01*
X+1855000Y-155000D01*
X+1845000Y-155000D01*
X+1845000Y-35000D01*
X+1755000Y-35000D01*
X+1755000Y-165000D01*
X+1780000Y-165000D01*
X+1780000Y-183284D01*
X+1791716Y-195000D01*
X+2258284Y-195000D01*
X+2270000Y-183284D01*
X+2270000Y-165000D01*
X+2280000Y-165000D01*
X+2280000Y-216716D01*
X+2266716Y-230000D01*
X+2116716Y-230000D01*
X+2064489Y-282228D01*
X+2064489Y-370150D01*
X+2039489Y-370150D01*
X+2039489Y-500149D01*
X+2129488Y-500149D01*
X+2129488Y-370150D01*
X+2104488Y-370150D01*
X+2104488Y-298796D01*
X+2133284Y-270000D01*
X+2283284Y-270000D01*
X+2320000Y-233284D01*
X+2320000Y-165000D01*
X+2345000Y-165000D01*
X+2345000Y-35000D01*
X+2270000Y-35000D01*
X+2270000Y-33284D01*
X+2327976Y+24693D01*
X+2327976Y+110244D01*
X+2352976Y+110244D01*
X+2352976Y+240244D01*
X+2262977Y+240244D01*
X+2262977Y+110244D01*
X+2287977Y+110244D01*
X+2287977Y+41260D01*
X+2230000Y-16716D01*
X+2230000Y-35000D01*
X+2155000Y-35000D01*
X+2155000Y-155000D01*
X+2145000Y-155000D01*
X+2145000Y-35000D01*
X+2070000Y-35000D01*
X+2070000Y+110244D01*
X+2083626Y+110244D01*
X+2083626Y+71484D01*
X+2107610Y+47500D01*
X+2108659Y+47500D01*
X+2112159Y+44000D01*
X+2137841Y+44000D01*
X+2156000Y+62159D01*
X+2156000Y+87841D01*
X+2138626Y+105215D01*
X+2138626Y+110244D01*
X+2156126Y+110244D01*
X+2156126Y+240244D01*
X+2070000Y+240244D01*
X+2070000Y+283284D01*
X+2033284Y+320000D01*
X+866716Y+320000D01*
X+830000Y+283284D01*
X+830000Y+243307D01*
X+753701Y+243307D01*
X+753701Y+113307D01*
X+771201Y+113307D01*
X+771201Y-138610D01*
X+689036Y-220775D01*
X+689036Y-372520D01*
X+671536Y-372520D01*
X+671536Y-500000D01*
X+663110Y-500000D01*
X+663110Y-372520D01*
X+573111Y-372520D01*
X+573111Y-502519D01*
X+593111Y-502519D01*
X+593111Y-535355D01*
X+607756Y-550000D01*
X+860355Y-550000D01*
X+925000Y-485355D01*
X+925000Y-225000D01*
X+975355Y-225000D01*
X+990000Y-210354D01*
X+1048646Y-269000D01*
X+1037159Y-269000D01*
X+1019000Y-287159D01*
X+1019000Y-312841D01*
X+1030000Y-323841D01*
X+1030000Y-735001D01*
X+786716Y-735001D01*
X+730000Y-791716D01*
X+730000Y-1151717D01*
X+565204Y-986920D01*
X+566000Y-986125D01*
X+566000Y-943875D01*
X+536125Y-914000D01*
X+493875Y-914000D01*
X+464000Y-943875D01*
X+464000Y-986125D01*
X+493875Y-1016000D01*
X+536125Y-1016000D01*
X+536920Y-1015204D01*
X+705000Y-1183284D01*
X+705000Y-1408284D01*
X+741716Y-1445000D01*
X+781181Y-1445000D01*
X+781181Y-1447874D01*
X+764645Y-1447874D01*
X+762519Y-1450000D01*
X+738891Y-1450000D01*
X+736390Y-1447500D01*
X+627500Y-1338610D01*
X+627500Y-1244397D01*
X+584881Y-1201779D01*
X+584881Y-1190226D01*
X+563987Y-1169331D01*
X+534438Y-1169331D01*
X+513544Y-1190226D01*
X+513544Y-1201779D01*
X+486456Y-1228867D01*
X+486456Y-1169331D01*
X+415119Y-1169331D01*
X+415119Y-1240669D01*
X+474654Y-1240669D01*
X+362822Y-1352500D01*
X+251712Y-1352500D01*
X+251712Y-1307822D01*
X+232500Y-1288610D01*
X+232500Y-1046000D01*
X+361000Y-1046000D01*
X+361000Y-934000D01*
X+134889Y-934000D01*
X+141390Y-927500D01*
X+396390Y-927500D01*
X+551440Y-772449D01*
X+551440Y+150807D01*
X+556851Y+150807D01*
X+556851Y+113307D01*
X+646850Y+113307D01*
X+646850Y+243307D01*
X+556851Y+243307D01*
X+556851Y+205807D01*
X+516917Y+205807D01*
X+496441Y+185331D01*
X+496441Y+369701D01*
X+2493996Y+369701D01*
X+2582250Y+281446D01*
G37*
%LPC*%
G36*
X+1755000Y-1935000D02*
X+1845000Y-1935000D01*
X+1845000Y-2065000D01*
X+1755000Y-2065000D01*
X+1755000Y-1935000D01*
G37*
G36*
X+1955000Y-1935000D02*
X+2045000Y-1935000D01*
X+2045000Y-2065000D01*
X+1955000Y-2065000D01*
X+1955000Y-1935000D01*
G37*
G36*
X+2055000Y-1935000D02*
X+2145000Y-1935000D01*
X+2145000Y-2065000D01*
X+2055000Y-2065000D01*
X+2055000Y-1935000D01*
G37*
G36*
X+2355000Y-35000D02*
X+2445000Y-35000D01*
X+2445000Y-165000D01*
X+2355000Y-165000D01*
X+2355000Y-35000D01*
G37*
G36*
X+2455000Y-35000D02*
X+2545000Y-35000D01*
X+2545000Y-165000D01*
X+2455000Y-165000D01*
X+2455000Y-35000D01*
G37*
G36*
X+655276Y+243307D02*
X+745275Y+243307D01*
X+745275Y+113307D01*
X+655276Y+113307D01*
X+655276Y+243307D01*
G37*
G36*
X+2164552Y+240244D02*
X+2254551Y+240244D01*
X+2254551Y+110244D01*
X+2164552Y+110244D01*
X+2164552Y+240244D01*
G37*
G36*
X+98937Y-1936142D02*
X+188937Y-1936142D01*
X+188937Y-2066141D01*
X+98937Y-2066141D01*
X+98937Y-1936142D01*
G37*
G36*
X+295788Y-1936142D02*
X+385787Y-1936142D01*
X+385787Y-2066141D01*
X+295788Y-2066141D01*
X+295788Y-1936142D01*
G37*
G36*
X+769930Y-1934930D02*
X+859929Y-1934930D01*
X+859929Y-2064929D01*
X+769930Y-2064929D01*
X+769930Y-1934930D01*
G37*
G36*
X+1842638Y-370150D02*
X+1932637Y-370150D01*
X+1932637Y-500149D01*
X+1842638Y-500149D01*
X+1842638Y-370150D01*
G37*
G36*
X+1941063Y-370150D02*
X+2031063Y-370150D01*
X+2031063Y-500149D01*
X+1941063Y-500149D01*
X+1941063Y-370150D01*
G37*
G36*
X+2227913Y-500149D02*
X+2210413Y-500149D01*
X+2210413Y-561390D01*
X+2144304Y-627500D01*
X+1986390Y-627500D01*
X+1937500Y-676390D01*
X+1937500Y-770000D01*
X+1955000Y-770000D01*
X+1955000Y-900000D01*
X+1937500Y-900000D01*
X+1937500Y-1480000D01*
X+1955000Y-1480000D01*
X+1955000Y-1610000D01*
X+1865000Y-1610000D01*
X+1865000Y-1480000D01*
X+1882500Y-1480000D01*
X+1882500Y-900000D01*
X+1865000Y-900000D01*
X+1865000Y-770000D01*
X+1882500Y-770000D01*
X+1882500Y-653610D01*
X+1963610Y-572500D01*
X+2121523Y-572500D01*
X+2155414Y-538610D01*
X+2155414Y-500149D01*
X+2137914Y-500149D01*
X+2137914Y-370150D01*
X+2227913Y-370150D01*
X+2227913Y-500149D01*
G37*
G36*
X+1381000Y-1187159D02*
X+1381000Y-1212841D01*
X+1370000Y-1223840D01*
X+1370000Y-1735000D01*
X+1390000Y-1735000D01*
X+1390000Y-1864999D01*
X+1300001Y-1864999D01*
X+1300001Y-1735000D01*
X+1320001Y-1735000D01*
X+1320001Y-1213841D01*
X+1319000Y-1212841D01*
X+1319000Y-1187159D01*
X+1337159Y-1169000D01*
X+1362841Y-1169000D01*
X+1381000Y-1187159D01*
G37*
G36*
X+911181Y-1127874D02*
X+911181Y-1217873D01*
X+781181Y-1217873D01*
X+781181Y-1127874D01*
X+911181Y-1127874D01*
G37*
G36*
X+2491000Y-641875D02*
X+2491000Y-684125D01*
X+2461125Y-714000D01*
X+2460000Y-714000D01*
X+2460000Y-733284D01*
X+2429999Y-763284D01*
X+2429999Y-770000D01*
X+2455000Y-770000D01*
X+2455000Y-900000D01*
X+2365000Y-900000D01*
X+2365000Y-770000D01*
X+2390001Y-770000D01*
X+2390001Y-746716D01*
X+2420000Y-716716D01*
X+2420000Y-714000D01*
X+2418875Y-714000D01*
X+2389000Y-684125D01*
X+2389000Y-641875D01*
X+2418875Y-612000D01*
X+2461125Y-612000D01*
X+2491000Y-641875D01*
G37*
G36*
X+2461125Y-314000D02*
X+2418875Y-314000D01*
X+2389000Y-284125D01*
X+2389000Y-241875D01*
X+2418875Y-212000D01*
X+2461125Y-212000D01*
X+2491000Y-241875D01*
X+2491000Y-284125D01*
X+2461125Y-314000D01*
G37*
G36*
X+868355Y-603056D02*
X+869151Y-602260D01*
X+911400Y-602260D01*
X+941275Y-632135D01*
X+941275Y-674385D01*
X+911400Y-704259D01*
X+869151Y-704259D01*
X+839276Y-674385D01*
X+839276Y-632135D01*
X+840072Y-631339D01*
X+828732Y-620000D01*
X+792496Y-620000D01*
X+792496Y-724149D01*
X+580496Y-724149D01*
X+580496Y-612150D01*
X+616496Y-612150D01*
X+616496Y-591716D01*
X+628212Y-580000D01*
X+845300Y-580000D01*
X+868355Y-603056D01*
G37*
G36*
X+2538307Y-727320D02*
X+2538307Y-674255D01*
X+2575830Y-636733D01*
X+2628894Y-636733D01*
X+2666417Y-674255D01*
X+2666417Y-727320D01*
X+2628894Y-764842D01*
X+2575830Y-764842D01*
X+2538307Y-727320D01*
G37*
G36*
X+2539945Y-1831532D02*
X+2539945Y-1778468D01*
X+2577468Y-1740945D01*
X+2630532Y-1740945D01*
X+2668055Y-1778468D01*
X+2668055Y-1831532D01*
X+2630532Y-1869055D01*
X+2577468Y-1869055D01*
X+2539945Y-1831532D01*
G37*
G36*
X+487126Y-2026532D02*
X+487126Y-1973468D01*
X+524649Y-1935945D01*
X+577713Y-1935945D01*
X+615236Y-1973468D01*
X+615236Y-2026532D01*
X+577713Y-2064055D01*
X+524649Y-2064055D01*
X+487126Y-2026532D01*
G37*
G36*
X+2555000Y-900000D02*
X+2465000Y-900000D01*
X+2465000Y-770000D01*
X+2555000Y-770000D01*
X+2555000Y-900000D01*
G37*
G36*
X+2355000Y-900000D02*
X+2265000Y-900000D01*
X+2265000Y-770000D01*
X+2355000Y-770000D01*
X+2355000Y-900000D01*
G37*
G36*
X+2255000Y-900000D02*
X+2165000Y-900000D01*
X+2165000Y-770000D01*
X+2255000Y-770000D01*
X+2255000Y-900000D01*
G37*
G36*
X+2155000Y-900000D02*
X+2065000Y-900000D01*
X+2065000Y-770000D01*
X+2155000Y-770000D01*
X+2155000Y-900000D01*
G37*
G36*
X+2055000Y-900000D02*
X+1965000Y-900000D01*
X+1965000Y-770000D01*
X+2055000Y-770000D01*
X+2055000Y-900000D01*
G37*
G36*
X+2055000Y-1610000D02*
X+1965000Y-1610000D01*
X+1965000Y-1480000D01*
X+2055000Y-1480000D01*
X+2055000Y-1610000D01*
G37*
G36*
X+2155000Y-1610000D02*
X+2065000Y-1610000D01*
X+2065000Y-1480000D01*
X+2155000Y-1480000D01*
X+2155000Y-1610000D01*
G37*
G36*
X+2255000Y-1610000D02*
X+2165000Y-1610000D01*
X+2165000Y-1480000D01*
X+2255000Y-1480000D01*
X+2255000Y-1610000D01*
G37*
G36*
X+2355000Y-1610000D02*
X+2265000Y-1610000D01*
X+2265000Y-1480000D01*
X+2355000Y-1480000D01*
X+2355000Y-1610000D01*
G37*
G36*
X+2455000Y-1610000D02*
X+2365000Y-1610000D01*
X+2365000Y-1480000D01*
X+2455000Y-1480000D01*
X+2455000Y-1610000D01*
G37*
G36*
X+1244000Y-846125D02*
X+1244000Y-803875D01*
X+1273875Y-774000D01*
X+1316125Y-774000D01*
X+1346000Y-803875D01*
X+1346000Y-846125D01*
X+1316125Y-876000D01*
X+1273875Y-876000D01*
X+1244000Y-846125D01*
G37*
%LPD*%
G36*
X+496441Y-749669D02*
X+373609Y-872500D01*
X+118610Y-872500D01*
X+77500Y-913610D01*
X+77500Y-934000D01*
X+49000Y-934000D01*
X+49000Y-1007110D01*
X+24000Y-1032110D01*
X+24000Y-831087D01*
X+382434Y-831087D01*
X+389008Y-825827D01*
X+491703Y-743671D01*
X+496441Y-733813D01*
X+496441Y-749669D01*
G37*
G36*
X+1560709Y+111007D02*
X+1601717Y+70000D01*
X+1583284Y+70000D01*
X+1551496Y+101788D01*
X+1551496Y+112166D01*
X+1560709Y+112166D01*
X+1560709Y+111007D01*
G37*
G36*
X+1486496Y+112166D02*
X+1511496Y+112166D01*
X+1511496Y+85220D01*
X+1551717Y+45000D01*
X+1483284Y+45000D01*
X+1453070Y+75213D01*
X+1453070Y+112166D01*
X+1478070Y+112166D01*
X+1478070Y+230001D01*
X+1486496Y+230001D01*
X+1486496Y+112166D01*
G37*
G36*
X+1388071Y+112166D02*
X+1413072Y+112166D01*
X+1413072Y+58645D01*
X+1451717Y+20000D01*
X+1383284Y+20000D01*
X+1354645Y+48638D01*
X+1354645Y+112166D01*
X+1379645Y+112166D01*
X+1379645Y+230001D01*
X+1388071Y+230001D01*
X+1388071Y+112166D01*
G37*
G36*
X+1289646Y+112166D02*
X+1314646Y+112166D01*
X+1314646Y+32070D01*
X+1351717Y-5000D01*
X+1283284Y-5000D01*
X+1256220Y+22064D01*
X+1256220Y+112166D01*
X+1281220Y+112166D01*
X+1281220Y+230001D01*
X+1289646Y+230001D01*
X+1289646Y+112166D01*
G37*
G36*
X+2030000Y+266716D02*
X+2030000Y-35000D01*
X+2020000Y-35000D01*
X+2020000Y+158284D01*
X+1981119Y+197165D01*
X+1674921Y+197165D01*
X+1674921Y+242165D01*
X+1600708Y+242165D01*
X+1600708Y+258283D01*
X+1588993Y+269999D01*
X+1129511Y+269999D01*
X+1117796Y+258283D01*
X+1117796Y+242165D01*
X+1092796Y+242165D01*
X+1092796Y+112166D01*
X+1182795Y+112166D01*
X+1182795Y+230001D01*
X+1191221Y+230001D01*
X+1191221Y+112166D01*
X+1216221Y+112166D01*
X+1216221Y+5495D01*
X+1256717Y-35000D01*
X+1195000Y-35000D01*
X+1195000Y-165000D01*
X+1220000Y-165000D01*
X+1220000Y-240653D01*
X+1143937Y-316716D01*
X+1143937Y-371339D01*
X+1139724Y-371339D01*
X+1139724Y-289370D01*
X+1045354Y-195000D01*
X+1048284Y-195000D01*
X+1060000Y-183284D01*
X+1060000Y-165000D01*
X+1085000Y-165000D01*
X+1085000Y-35000D01*
X+1067500Y-35000D01*
X+1067500Y+221390D01*
X+1031000Y+257890D01*
X+1031000Y+262841D01*
X+1013840Y+280000D01*
X+2016716Y+280000D01*
X+2030000Y+266716D01*
G37*
%LPC*%
G36*
X+1185000Y-165000D02*
X+1160000Y-165000D01*
X+1160000Y-169000D01*
X+1162841Y-169000D01*
X+1181000Y-187159D01*
X+1181000Y-212841D01*
X+1162841Y-231000D01*
X+1137159Y-231000D01*
X+1119000Y-212841D01*
X+1119000Y-187159D01*
X+1120000Y-186159D01*
X+1120000Y-165000D01*
X+1095000Y-165000D01*
X+1095000Y-35000D01*
X+1185000Y-35000D01*
X+1185000Y-165000D01*
G37*
%LPD*%
G36*
X+1470000Y-33284D02*
X+1470000Y-35000D01*
X+1409999Y-35000D01*
X+1409999Y-20000D01*
X+1456716Y-20000D01*
X+1470000Y-33284D01*
G37*
G36*
X+969000Y+262841D02*
X+969000Y+237159D01*
X+987159Y+219000D01*
X+992110Y+219000D01*
X+1012500Y+198610D01*
X+1012500Y-35000D01*
X+995000Y-35000D01*
X+995000Y-75000D01*
X+985000Y-75000D01*
X+985000Y-35000D01*
X+895000Y-35000D01*
X+895000Y-165000D01*
X+964646Y-165000D01*
X+954645Y-175000D01*
X+918841Y-175000D01*
X+912841Y-169000D01*
X+887159Y-169000D01*
X+870000Y-186160D01*
X+870000Y+266716D01*
X+883284Y+280000D01*
X+986160Y+280000D01*
X+969000Y+262841D01*
G37*
G36*
X+2055000Y-155000D02*
X+2045000Y-155000D01*
X+2045000Y-120000D01*
X+2055000Y-120000D01*
X+2055000Y-155000D01*
G37*
G36*
X+1980000Y+141716D02*
X+1980000Y-35000D01*
X+1955000Y-35000D01*
X+1955000Y-155000D01*
X+1945000Y-155000D01*
X+1945000Y-35000D01*
X+1920000Y-35000D01*
X+1920000Y+58284D01*
X+1883284Y+95000D01*
X+1633284Y+95000D01*
X+1616118Y+112166D01*
X+1674921Y+112166D01*
X+1674921Y+157166D01*
X+1964551Y+157166D01*
X+1980000Y+141716D01*
G37*
G36*
X+1020000Y-169646D02*
X+1015354Y-165000D01*
X+1020000Y-165000D01*
X+1020000Y-169646D01*
G37*
G36*
X+1470000Y-165000D02*
X+1470000Y-173284D01*
X+1501717Y-205000D01*
X+1433284Y-205000D01*
X+1409999Y-181716D01*
X+1409999Y-165000D01*
X+1470000Y-165000D01*
X+1470000Y-165000D01*
G37*
G36*
X+1295000Y-165000D02*
X+1370001Y-165000D01*
X+1370001Y-198284D01*
X+1416716Y-245000D01*
X+1541716Y-245000D01*
X+1555000Y-258284D01*
X+1555000Y-263506D01*
X+1537148Y-245654D01*
X+1494899Y-245654D01*
X+1471399Y-269154D01*
X+1347074Y-269154D01*
X+1284075Y-332153D01*
X+1284075Y-371339D01*
X+1266575Y-371339D01*
X+1266575Y-501338D01*
X+1356574Y-501338D01*
X+1356574Y-371339D01*
X+1339074Y-371339D01*
X+1339074Y-354933D01*
X+1369855Y-324153D01*
X+1471399Y-324153D01*
X+1494899Y-347653D01*
X+1537148Y-347653D01*
X+1555000Y-329801D01*
X+1555000Y-663506D01*
X+1537148Y-645654D01*
X+1494899Y-645654D01*
X+1470543Y-670009D01*
X+1371315Y-672500D01*
X+1341275Y-672500D01*
X+1341275Y-632135D01*
X+1311400Y-602260D01*
X+1269151Y-602260D01*
X+1255150Y-616261D01*
X+1240649Y-601759D01*
X+1240649Y-501338D01*
X+1258149Y-501338D01*
X+1258149Y-371339D01*
X+1183937Y-371339D01*
X+1183937Y-333284D01*
X+1260000Y-257221D01*
X+1260000Y-165000D01*
X+1285000Y-165000D01*
X+1285000Y-45000D01*
X+1295000Y-45000D01*
X+1295000Y-165000D01*
G37*
G36*
X+1089725Y-310079D02*
X+1089725Y-371339D01*
X+1070000Y-371339D01*
X+1070000Y-323841D01*
X+1081000Y-312841D01*
X+1081000Y-301354D01*
X+1089725Y-310079D01*
G37*
G36*
X+869000Y-212841D02*
X+875000Y-218841D01*
X+875000Y-464645D01*
X+859960Y-479685D01*
X+859960Y-372520D01*
X+834960Y-372520D01*
X+834960Y-243323D01*
X+869000Y-209283D01*
X+869000Y-212841D01*
G37*
G36*
X+830000Y-191716D02*
X+794961Y-226756D01*
X+794961Y-372520D01*
X+769961Y-372520D01*
X+769961Y-500000D01*
X+761535Y-500000D01*
X+761535Y-372520D01*
X+744035Y-372520D01*
X+744035Y-243556D01*
X+826200Y-161390D01*
X+826200Y+113307D01*
X+830000Y+113307D01*
X+830000Y-191716D01*
G37*
G36*
X+1143937Y-777779D02*
X+1116716Y-805000D01*
X+946000Y-805000D01*
X+946000Y-803875D01*
X+917124Y-775000D01*
X+1053283Y-775000D01*
X+1070000Y-758284D01*
X+1070000Y-501338D01*
X+1143937Y-501338D01*
X+1143937Y-777779D01*
G37*
G36*
X+905000Y-1327874D02*
X+866180Y-1327874D01*
X+866180Y-1317873D01*
X+905000Y-1317873D01*
X+905000Y-1327874D01*
G37*
G36*
X+760858Y-1339142D02*
X+766716Y-1345000D01*
X+781181Y-1345000D01*
X+781181Y-1405000D01*
X+758284Y-1405000D01*
X+745000Y-1391716D01*
X+745000Y-1323283D01*
X+760858Y-1339142D01*
G37*
G36*
X+177500Y-1300000D02*
X+177500Y-1311390D01*
X+196713Y-1330603D01*
X+196713Y-1357056D01*
X+188544Y-1365226D01*
X+188544Y-1394774D01*
X+199213Y-1405444D01*
X+199213Y-1533716D01*
X+193283Y-1539645D01*
X+193283Y-1620000D01*
X+101173Y-1620000D01*
X+77500Y-1596326D01*
X+77500Y-1056390D01*
X+87890Y-1046000D01*
X+177500Y-1046000D01*
X+177500Y-1300000D01*
G37*
%LPC*%
G36*
X+90119Y-1344331D02*
X+161456Y-1344331D01*
X+161456Y-1415669D01*
X+90119Y-1415669D01*
X+90119Y-1344331D01*
G37*
%LPD*%
G36*
X+1472500Y-1735000D02*
X+1468425Y-1735000D01*
X+1468425Y-975415D01*
X+1472500Y-971340D01*
X+1472500Y-1735000D01*
G37*
G36*
X+1680001Y-8284D02*
X+1680001Y-35000D01*
X+1595000Y-35000D01*
X+1595000Y-165000D01*
X+1680001Y-165000D01*
X+1680001Y-1783284D01*
X+1701717Y-1805001D01*
X+1683284Y-1805001D01*
X+1670000Y-1791716D01*
X+1670000Y-216716D01*
X+1633284Y-180000D01*
X+1533284Y-180000D01*
X+1518283Y-165000D01*
X+1585000Y-165000D01*
X+1585000Y-35000D01*
X+1510000Y-35000D01*
X+1510000Y-16716D01*
X+1488283Y+5000D01*
X+1666716Y+5000D01*
X+1680001Y-8284D01*
G37*
G36*
X+2380000Y-1833284D02*
X+2380000Y-1935000D01*
X+2370000Y-1935000D01*
X+2370000Y-1841716D01*
X+2348283Y-1819999D01*
X+2366716Y-1819999D01*
X+2380000Y-1833284D01*
G37*
G36*
X+1630000Y-233284D02*
X+1630000Y-1808284D01*
X+1666716Y-1844999D01*
X+2316716Y-1844999D01*
X+2330000Y-1858284D01*
X+2330000Y-1935000D01*
X+2320000Y-1935000D01*
X+2320000Y-1891716D01*
X+2283284Y-1855000D01*
X+1608284Y-1855000D01*
X+1595000Y-1841716D01*
X+1595000Y-241716D01*
X+1573283Y-220000D01*
X+1616716Y-220000D01*
X+1630000Y-233284D01*
G37*
D10*
X+636496Y-668150D02*
X+636496Y-600000D01*
X+837016Y-600000D01*
X+890276Y-653260D01*
X+2440000Y-663000D02*
X+2440000Y-725000D01*
X+2410000Y-755000D01*
X+2410000Y-835000D01*
X+846181Y-1272873D02*
X+925000Y-1272873D01*
X+925000Y-1400000D01*
X+900000Y-1425000D01*
X+750000Y-1425000D01*
X+725000Y-1400000D01*
X+725000Y-1175000D01*
X+515000Y-965000D01*
X+2200000Y-2000000D02*
X+2200000Y-2075000D01*
X+2350000Y-2075000D01*
X+2350000Y-1850000D01*
X+2325000Y-1825000D01*
X+1675000Y-1825000D01*
X+1650000Y-1800000D01*
X+1650000Y-225000D01*
X+1625000Y-200000D01*
X+1525000Y-200000D01*
X+1490000Y-165000D01*
X+1490000Y-25000D01*
X+1465000Y+0D01*
X+1375000Y+0D01*
X+1334646Y+40354D01*
X+1334646Y+177165D01*
X+2300000Y-2000000D02*
X+2300000Y-1900000D01*
X+2275000Y-1875000D01*
X+1600000Y-1875000D01*
X+1575000Y-1850000D01*
X+1575000Y-250000D01*
X+1550000Y-225000D01*
X+1425000Y-225000D01*
X+1390000Y-190000D01*
X+1390000Y-25000D01*
X+1275000Y-25000D01*
X+1236220Y+13780D01*
X+1236220Y+177165D01*
X+2400000Y-2000000D02*
X+2400000Y-1825000D01*
X+2375000Y-1800000D01*
X+1725000Y-1800000D01*
X+1700000Y-1775000D01*
X+1700000Y+0D01*
X+1675000Y+25000D01*
X+1475000Y+25000D01*
X+1433071Y+66929D01*
X+1433071Y+177165D01*
X+2500000Y-2000000D02*
X+2500000Y-1800000D01*
X+2475000Y-1775000D01*
X+1750000Y-1775000D01*
X+1725000Y-1750000D01*
X+1725000Y+25000D01*
X+1700000Y+50000D01*
X+1575000Y+50000D01*
X+1531496Y+93504D01*
X+1531496Y+177165D01*
D11*
X+1350000Y-1200000D02*
X+1345000Y-1205000D01*
X+1345000Y-1800000D01*
X+1450000Y-950000D02*
X+1443426Y-956574D01*
X+1443426Y-1800000D01*
D10*
X+895000Y-825000D02*
X+1125000Y-825000D01*
X+1163937Y-786063D01*
X+1163937Y-325000D01*
X+1240000Y-248937D01*
X+1240000Y-100000D01*
X+1150000Y-200000D02*
X+1140000Y-190000D01*
X+1140000Y-100000D01*
X+1050000Y-300000D02*
X+1050000Y-750000D01*
X+1045000Y-755000D01*
X+795000Y-755000D01*
X+750000Y-800000D01*
X+750000Y-1300000D01*
X+775000Y-1325000D01*
X+846181Y-1325000D01*
X+846181Y-1372873D01*
X+2300000Y-100000D02*
X+2300000Y-225000D01*
X+2275000Y-250000D01*
X+2125000Y-250000D01*
X+2084488Y-290512D01*
X+2084488Y-435150D01*
X+2100000Y-100000D02*
X+2050000Y-100000D01*
X+2050000Y+275000D01*
X+2025000Y+300000D01*
X+875000Y+300000D01*
X+850000Y+275000D01*
X+850000Y-200000D01*
X+814961Y-235039D01*
X+814961Y-437520D01*
X+2000000Y-100000D02*
X+2000000Y+150000D01*
X+1972835Y+177165D01*
X+1629921Y+177165D01*
X+1900000Y-100000D02*
X+1900000Y+50000D01*
X+1875000Y+75000D01*
X+1625000Y+75000D01*
X+1580709Y+119291D01*
X+1580709Y+250000D01*
X+1137795Y+250000D01*
X+1137795Y+177165D01*
X+1800000Y-100000D02*
X+1800000Y-175000D01*
X+2250000Y-175000D01*
X+2250000Y-25000D01*
X+2307976Y+32976D01*
X+2307976Y+175244D01*
X+1775000Y-250000D02*
X+1750000Y-275000D01*
X+1750000Y-1625000D01*
X+1775000Y-1650000D01*
X+2475000Y-1650000D01*
X+2510000Y-1615000D01*
X+2510000Y-1545000D01*
D12*
X+2182913Y-435150D02*
X+2182913Y-550000D01*
X+2132913Y-600000D01*
X+1975000Y-600000D01*
X+1910000Y-665000D01*
X+1910000Y-835000D01*
X+913354Y-1999929D02*
X+913354Y-1875000D01*
X+725000Y-1686646D01*
X+725000Y-1475000D01*
D11*
X+900000Y-200000D02*
X+900000Y-475000D01*
X+850000Y-525000D01*
X+618110Y-525000D01*
X+618110Y-437520D01*
D12*
X+224213Y-1380000D02*
X+374213Y-1380000D01*
X+549213Y-1205000D01*
X+600000Y-1255787D01*
X+600000Y-1350000D01*
X+725000Y-1475000D01*
D11*
X+846181Y-1472873D02*
X+925000Y-1472873D01*
X+975000Y-1422873D01*
X+975000Y-1025000D01*
X+915000Y-965000D01*
X+990000Y-175000D02*
X+1114724Y-299724D01*
X+1114724Y-436339D01*
X+218283Y-1676000D02*
X+242362Y-1700079D01*
X+242362Y-2001142D01*
D12*
X+205000Y-990000D02*
X+205000Y-1300000D01*
X+224213Y-1319213D01*
X+224213Y-1380000D01*
D11*
X+1040000Y-100000D02*
X+990000Y-100000D01*
X+990000Y-175000D01*
D12*
X+1040000Y-100000D02*
X+1040000Y+210000D01*
X+1000000Y+250000D01*
D11*
X+218283Y-1676000D02*
X+218283Y-1550000D01*
X+224213Y-1544070D01*
X+224213Y-1380000D01*
X+846181Y-1472873D02*
X+775000Y-1472873D01*
X+772873Y-1475000D01*
X+725000Y-1475000D01*
X+1600000Y-2000000D02*
X+1600000Y-2100000D01*
X+1550000Y-2150000D01*
X+975000Y-2150000D01*
X+913354Y-2088354D01*
X+913354Y-1999929D01*
X+1910000Y-835000D02*
X+1910000Y-835000D01*
D12*
X+1910000Y-1545000D01*
D11*
X+1600000Y-2000000D02*
X+1650000Y-2000000D01*
X+1650000Y-2000000D01*
X+1700000Y-2000000D01*
X+1700000Y-2000000D01*
X+900000Y-200000D02*
X+965000Y-200000D01*
X+990000Y-175000D01*
D10*
X+1040000Y-100000D02*
X+1040000Y-175000D01*
D11*
X+1600000Y-2000000D02*
X+1600000Y-2000000D01*
D12*
X+1311575Y-436339D02*
X+1311575Y-343543D01*
X+1358465Y-296654D01*
X+1516024Y-296654D01*
X+1011780Y-1999929D02*
X+1011780Y-1600000D01*
X+984653Y-1572873D01*
X+846181Y-1572873D01*
X+1500000Y-2000000D02*
X+1500000Y-875000D01*
X+1516024Y-858976D01*
X+1516024Y-696654D01*
D10*
X+1500000Y-2000000D02*
X+1500000Y-2075000D01*
X+1011780Y-2075000D01*
X+1011780Y-1999929D01*
D11*
X+798701Y+178307D02*
X+798701Y+173307D01*
X+798701Y+161307D01*
D10*
X+798701Y+178307D02*
X+798701Y+173307D01*
X+798701Y+161307D01*
D12*
X+798701Y-150000D01*
X+716535Y-232165D01*
X+716535Y-437520D01*
X+1325000Y-700000D02*
X+1300000Y-700000D01*
X+1213150Y-436339D02*
X+1213150Y-613150D01*
X+1290276Y-690276D01*
D10*
X+1290276Y-653260D01*
D12*
X+1300000Y-700000D02*
X+1290276Y-690276D01*
X+1516024Y-696654D02*
X+1371654Y-700000D01*
X+1325000Y-700000D01*
X+118283Y-1676000D02*
X+50000Y-1607717D01*
X+50000Y-1045000D01*
X+105000Y-990000D01*
X+105000Y-925000D01*
X+130000Y-900000D01*
X+385000Y-900000D01*
X+523941Y-761059D01*
X+523941Y+173941D01*
X+528307Y+178307D01*
X+601850Y+178307D01*
X+2125000Y+75000D02*
X+2119000Y+75000D01*
X+2111126Y+82874D01*
X+2111126Y+175244D01*
D13*
X+1350000Y-1200000D03*
X+1450000Y-950000D03*
X+1150000Y-200000D03*
X+1050000Y-300000D03*
X+1775000Y-250000D03*
X+1000000Y+250000D03*
X+900000Y-200000D03*
X+2125000Y+75000D03*
D10*
X+2582250Y+281446D02*
X+2578320Y-520449D01*
X+2583925Y-527175D01*
X+2676762Y-638580D01*
X+2672884Y-1957236D01*
X+2582894Y-2032227D01*
X+2578362Y-2041903D01*
X+2578362Y-2271276D01*
X+24000Y-2271276D01*
X+24000Y-1620606D01*
X+62283Y-1658890D01*
X+62283Y-1731999D01*
X+217363Y-1731999D01*
X+217363Y-1936142D01*
X+197363Y-1936142D01*
X+197363Y-2066141D01*
X+287362Y-2066141D01*
X+287362Y-1936142D01*
X+267362Y-1936142D01*
X+267362Y-1731999D01*
X+374283Y-1731999D01*
X+374283Y-1620000D01*
X+243283Y-1620000D01*
X+243283Y-1560355D01*
X+249212Y-1554425D01*
X+249212Y-1407500D01*
X+385603Y-1407500D01*
X+549213Y-1243890D01*
X+572500Y-1267178D01*
X+572500Y-1361390D01*
X+697500Y-1486390D01*
X+697500Y-1698036D01*
X+885855Y-1886390D01*
X+885855Y-1934930D01*
X+868355Y-1934930D01*
X+868355Y-2064929D01*
X+888355Y-2064929D01*
X+888355Y-2098709D01*
X+964645Y-2175000D01*
X+1560355Y-2175000D01*
X+1625000Y-2110355D01*
X+1625000Y-2065000D01*
X+1645000Y-2065000D01*
X+1645000Y-2025000D01*
X+1655000Y-2025000D01*
X+1655000Y-2065000D01*
X+1745000Y-2065000D01*
X+1745000Y-1935000D01*
X+1655000Y-1935000D01*
X+1655000Y-1975000D01*
X+1645000Y-1975000D01*
X+1645000Y-1935000D01*
X+1555000Y-1935000D01*
X+1555000Y-2065000D01*
X+1575000Y-2065000D01*
X+1575000Y-2089645D01*
X+1539645Y-2125000D01*
X+985355Y-2125000D01*
X+938354Y-2078000D01*
X+938354Y-2064929D01*
X+958354Y-2064929D01*
X+958354Y-1934930D01*
X+940854Y-1934930D01*
X+940854Y-1863610D01*
X+795117Y-1717873D01*
X+911181Y-1717873D01*
X+911181Y-1627874D01*
X+781181Y-1627874D01*
X+781181Y-1703937D01*
X+752500Y-1675256D01*
X+752500Y-1500000D01*
X+781181Y-1500000D01*
X+781181Y-1517873D01*
X+911181Y-1517873D01*
X+911181Y-1497873D01*
X+935355Y-1497873D01*
X+1000000Y-1433228D01*
X+1000000Y-1014645D01*
X+966000Y-980645D01*
X+966000Y-943875D01*
X+936125Y-914000D01*
X+893875Y-914000D01*
X+864000Y-943875D01*
X+864000Y-986125D01*
X+893875Y-1016000D01*
X+930645Y-1016000D01*
X+950000Y-1035355D01*
X+950000Y-1412519D01*
X+914645Y-1447874D01*
X+911181Y-1447874D01*
X+911181Y-1442103D01*
X+945000Y-1408284D01*
X+945000Y-1264589D01*
X+933284Y-1252874D01*
X+911181Y-1252874D01*
X+911181Y-1227874D01*
X+781181Y-1227874D01*
X+781181Y-1302898D01*
X+770000Y-1291716D01*
X+770000Y-808284D01*
X+803283Y-775000D01*
X+872876Y-775000D01*
X+844000Y-803875D01*
X+844000Y-846125D01*
X+873875Y-876000D01*
X+916125Y-876000D01*
X+946000Y-846125D01*
X+946000Y-845000D01*
X+1133284Y-845000D01*
X+1183937Y-794347D01*
X+1183937Y-501338D01*
X+1185650Y-501338D01*
X+1185650Y-624540D01*
X+1288609Y-727500D01*
X+1371957Y-727500D01*
X+1472579Y-725333D01*
X+1488524Y-741278D01*
X+1488524Y-847586D01*
X+1472500Y-863610D01*
X+1472500Y-928660D01*
X+1462841Y-919000D01*
X+1437159Y-919000D01*
X+1419000Y-937159D01*
X+1419000Y-945645D01*
X+1418426Y-946220D01*
X+1418426Y-1735000D01*
X+1398426Y-1735000D01*
X+1398426Y-1864999D01*
X+1472500Y-1864999D01*
X+1472500Y-1935000D01*
X+1455000Y-1935000D01*
X+1455000Y-2055000D01*
X+1445000Y-2055000D01*
X+1445000Y-1935000D01*
X+1355000Y-1935000D01*
X+1355000Y-2055000D01*
X+1345000Y-2055000D01*
X+1345000Y-1935000D01*
X+1255000Y-1935000D01*
X+1255000Y-2055000D01*
X+1056779Y-2055000D01*
X+1056779Y-1934930D01*
X+1039279Y-1934930D01*
X+1039279Y-1588610D01*
X+996043Y-1545374D01*
X+911181Y-1545374D01*
X+911181Y-1527874D01*
X+781181Y-1527874D01*
X+781181Y-1617873D01*
X+911181Y-1617873D01*
X+911181Y-1600373D01*
X+973263Y-1600373D01*
X+984280Y-1611390D01*
X+984280Y-1934930D01*
X+966780Y-1934930D01*
X+966780Y-2064929D01*
X+991780Y-2064929D01*
X+991780Y-2083284D01*
X+1003496Y-2095000D01*
X+1508284Y-2095000D01*
X+1520000Y-2083284D01*
X+1520000Y-2065000D01*
X+1545000Y-2065000D01*
X+1545000Y-1935000D01*
X+1527500Y-1935000D01*
X+1527500Y-886390D01*
X+1543523Y-870367D01*
X+1543523Y-741278D01*
X+1555000Y-729801D01*
X+1555000Y-1858284D01*
X+1591716Y-1895000D01*
X+2266716Y-1895000D01*
X+2280000Y-1908284D01*
X+2280000Y-1935000D01*
X+2255000Y-1935000D01*
X+2255000Y-2055000D01*
X+2245000Y-2055000D01*
X+2245000Y-1935000D01*
X+2155000Y-1935000D01*
X+2155000Y-2065000D01*
X+2180000Y-2065000D01*
X+2180000Y-2083284D01*
X+2191716Y-2095000D01*
X+2358284Y-2095000D01*
X+2370000Y-2083284D01*
X+2370000Y-2065000D01*
X+2445000Y-2065000D01*
X+2445000Y-1935000D01*
X+2420000Y-1935000D01*
X+2420000Y-1816716D01*
X+2398283Y-1795000D01*
X+2466716Y-1795000D01*
X+2480000Y-1808284D01*
X+2480000Y-1935000D01*
X+2455000Y-1935000D01*
X+2455000Y-2065000D01*
X+2545000Y-2065000D01*
X+2545000Y-1935000D01*
X+2520000Y-1935000D01*
X+2520000Y-1791716D01*
X+2483284Y-1755000D01*
X+1758284Y-1755000D01*
X+1744999Y-1741716D01*
X+1744999Y-1648283D01*
X+1766716Y-1670000D01*
X+2483284Y-1670000D01*
X+2530000Y-1623284D01*
X+2530000Y-1610000D01*
X+2555000Y-1610000D01*
X+2555000Y-1480000D01*
X+2465000Y-1480000D01*
X+2465000Y-1610000D01*
X+2486717Y-1610000D01*
X+2466716Y-1630000D01*
X+1783284Y-1630000D01*
X+1770000Y-1616716D01*
X+1770000Y-1610000D01*
X+1855000Y-1610000D01*
X+1855000Y-1480000D01*
X+1770000Y-1480000D01*
X+1770000Y-900000D01*
X+1855000Y-900000D01*
X+1855000Y-770000D01*
X+1770000Y-770000D01*
X+1770000Y-283284D01*
X+1772284Y-281000D01*
X+1787841Y-281000D01*
X+1806000Y-262841D01*
X+1806000Y-237159D01*
X+1787841Y-219000D01*
X+1762159Y-219000D01*
X+1744999Y-236161D01*
X+1744999Y+33284D01*
X+1723283Y+55000D01*
X+1866716Y+55000D01*
X+1880000Y+41716D01*
X+1880000Y-35000D01*
X+1855000Y-35000D01*
X+1855000Y-155000D01*
X+1845000Y-155000D01*
X+1845000Y-35000D01*
X+1755000Y-35000D01*
X+1755000Y-165000D01*
X+1780000Y-165000D01*
X+1780000Y-183284D01*
X+1791716Y-195000D01*
X+2258284Y-195000D01*
X+2270000Y-183284D01*
X+2270000Y-165000D01*
X+2280000Y-165000D01*
X+2280000Y-216716D01*
X+2266716Y-230000D01*
X+2116716Y-230000D01*
X+2064489Y-282228D01*
X+2064489Y-370150D01*
X+2039489Y-370150D01*
X+2039489Y-500149D01*
X+2129488Y-500149D01*
X+2129488Y-370150D01*
X+2104488Y-370150D01*
X+2104488Y-298796D01*
X+2133284Y-270000D01*
X+2283284Y-270000D01*
X+2320000Y-233284D01*
X+2320000Y-165000D01*
X+2345000Y-165000D01*
X+2345000Y-35000D01*
X+2270000Y-35000D01*
X+2270000Y-33284D01*
X+2327976Y+24693D01*
X+2327976Y+110244D01*
X+2352976Y+110244D01*
X+2352976Y+240244D01*
X+2262977Y+240244D01*
X+2262977Y+110244D01*
X+2287977Y+110244D01*
X+2287977Y+41260D01*
X+2230000Y-16716D01*
X+2230000Y-35000D01*
X+2155000Y-35000D01*
X+2155000Y-155000D01*
X+2145000Y-155000D01*
X+2145000Y-35000D01*
X+2070000Y-35000D01*
X+2070000Y+110244D01*
X+2083626Y+110244D01*
X+2083626Y+71484D01*
X+2107610Y+47500D01*
X+2108659Y+47500D01*
X+2112159Y+44000D01*
X+2137841Y+44000D01*
X+2156000Y+62159D01*
X+2156000Y+87841D01*
X+2138626Y+105215D01*
X+2138626Y+110244D01*
X+2156126Y+110244D01*
X+2156126Y+240244D01*
X+2070000Y+240244D01*
X+2070000Y+283284D01*
X+2033284Y+320000D01*
X+866716Y+320000D01*
X+830000Y+283284D01*
X+830000Y+243307D01*
X+753701Y+243307D01*
X+753701Y+113307D01*
X+771201Y+113307D01*
X+771201Y-138610D01*
X+689036Y-220775D01*
X+689036Y-372520D01*
X+671536Y-372520D01*
X+671536Y-500000D01*
X+663110Y-500000D01*
X+663110Y-372520D01*
X+573111Y-372520D01*
X+573111Y-502519D01*
X+593111Y-502519D01*
X+593111Y-535355D01*
X+607756Y-550000D01*
X+860355Y-550000D01*
X+925000Y-485355D01*
X+925000Y-225000D01*
X+975355Y-225000D01*
X+990000Y-210354D01*
X+1048646Y-269000D01*
X+1037159Y-269000D01*
X+1019000Y-287159D01*
X+1019000Y-312841D01*
X+1030000Y-323841D01*
X+1030000Y-735001D01*
X+786716Y-735001D01*
X+730000Y-791716D01*
X+730000Y-1151717D01*
X+565204Y-986920D01*
X+566000Y-986125D01*
X+566000Y-943875D01*
X+536125Y-914000D01*
X+493875Y-914000D01*
X+464000Y-943875D01*
X+464000Y-986125D01*
X+493875Y-1016000D01*
X+536125Y-1016000D01*
X+536920Y-1015204D01*
X+705000Y-1183284D01*
X+705000Y-1408284D01*
X+741716Y-1445000D01*
X+781181Y-1445000D01*
X+781181Y-1447874D01*
X+764645Y-1447874D01*
X+762519Y-1450000D01*
X+738891Y-1450000D01*
X+736390Y-1447500D01*
X+627500Y-1338610D01*
X+627500Y-1244397D01*
X+584881Y-1201779D01*
X+584881Y-1190226D01*
X+563987Y-1169331D01*
X+534438Y-1169331D01*
X+513544Y-1190226D01*
X+513544Y-1201779D01*
X+486456Y-1228867D01*
X+486456Y-1169331D01*
X+415119Y-1169331D01*
X+415119Y-1240669D01*
X+474654Y-1240669D01*
X+362822Y-1352500D01*
X+251712Y-1352500D01*
X+251712Y-1307822D01*
X+232500Y-1288610D01*
X+232500Y-1046000D01*
X+361000Y-1046000D01*
X+361000Y-934000D01*
X+134889Y-934000D01*
X+141390Y-927500D01*
X+396390Y-927500D01*
X+551440Y-772449D01*
X+551440Y+150807D01*
X+556851Y+150807D01*
X+556851Y+113307D01*
X+646850Y+113307D01*
X+646850Y+243307D01*
X+556851Y+243307D01*
X+556851Y+205807D01*
X+516917Y+205807D01*
X+496441Y+185331D01*
X+496441Y+369701D01*
X+2493996Y+369701D01*
X+2582250Y+281446D01*
X+1755000Y-1935000D02*
X+1845000Y-1935000D01*
X+1845000Y-2065000D01*
X+1755000Y-2065000D01*
X+1755000Y-1935000D01*
X+1955000Y-1935000D02*
X+2045000Y-1935000D01*
X+2045000Y-2065000D01*
X+1955000Y-2065000D01*
X+1955000Y-1935000D01*
X+2055000Y-1935000D02*
X+2145000Y-1935000D01*
X+2145000Y-2065000D01*
X+2055000Y-2065000D01*
X+2055000Y-1935000D01*
X+2355000Y-35000D02*
X+2445000Y-35000D01*
X+2445000Y-165000D01*
X+2355000Y-165000D01*
X+2355000Y-35000D01*
X+2455000Y-35000D02*
X+2545000Y-35000D01*
X+2545000Y-165000D01*
X+2455000Y-165000D01*
X+2455000Y-35000D01*
X+655276Y+243307D02*
X+745275Y+243307D01*
X+745275Y+113307D01*
X+655276Y+113307D01*
X+655276Y+243307D01*
X+2164552Y+240244D02*
X+2254551Y+240244D01*
X+2254551Y+110244D01*
X+2164552Y+110244D01*
X+2164552Y+240244D01*
X+98937Y-1936142D02*
X+188937Y-1936142D01*
X+188937Y-2066141D01*
X+98937Y-2066141D01*
X+98937Y-1936142D01*
X+295788Y-1936142D02*
X+385787Y-1936142D01*
X+385787Y-2066141D01*
X+295788Y-2066141D01*
X+295788Y-1936142D01*
X+769930Y-1934930D02*
X+859929Y-1934930D01*
X+859929Y-2064929D01*
X+769930Y-2064929D01*
X+769930Y-1934930D01*
X+1842638Y-370150D02*
X+1932637Y-370150D01*
X+1932637Y-500149D01*
X+1842638Y-500149D01*
X+1842638Y-370150D01*
X+1941063Y-370150D02*
X+2031063Y-370150D01*
X+2031063Y-500149D01*
X+1941063Y-500149D01*
X+1941063Y-370150D01*
X+2227913Y-500149D02*
X+2210413Y-500149D01*
X+2210413Y-561390D01*
X+2144304Y-627500D01*
X+1986390Y-627500D01*
X+1937500Y-676390D01*
X+1937500Y-770000D01*
X+1955000Y-770000D01*
X+1955000Y-900000D01*
X+1937500Y-900000D01*
X+1937500Y-1480000D01*
X+1955000Y-1480000D01*
X+1955000Y-1610000D01*
X+1865000Y-1610000D01*
X+1865000Y-1480000D01*
X+1882500Y-1480000D01*
X+1882500Y-900000D01*
X+1865000Y-900000D01*
X+1865000Y-770000D01*
X+1882500Y-770000D01*
X+1882500Y-653610D01*
X+1963610Y-572500D01*
X+2121523Y-572500D01*
X+2155414Y-538610D01*
X+2155414Y-500149D01*
X+2137914Y-500149D01*
X+2137914Y-370150D01*
X+2227913Y-370150D01*
X+2227913Y-500149D01*
X+1381000Y-1187159D02*
X+1381000Y-1212841D01*
X+1370000Y-1223840D01*
X+1370000Y-1735000D01*
X+1390000Y-1735000D01*
X+1390000Y-1864999D01*
X+1300001Y-1864999D01*
X+1300001Y-1735000D01*
X+1320001Y-1735000D01*
X+1320001Y-1213841D01*
X+1319000Y-1212841D01*
X+1319000Y-1187159D01*
X+1337159Y-1169000D01*
X+1362841Y-1169000D01*
X+1381000Y-1187159D01*
X+911181Y-1127874D02*
X+911181Y-1217873D01*
X+781181Y-1217873D01*
X+781181Y-1127874D01*
X+911181Y-1127874D01*
X+2491000Y-641875D02*
X+2491000Y-684125D01*
X+2461125Y-714000D01*
X+2460000Y-714000D01*
X+2460000Y-733284D01*
X+2429999Y-763284D01*
X+2429999Y-770000D01*
X+2455000Y-770000D01*
X+2455000Y-900000D01*
X+2365000Y-900000D01*
X+2365000Y-770000D01*
X+2390001Y-770000D01*
X+2390001Y-746716D01*
X+2420000Y-716716D01*
X+2420000Y-714000D01*
X+2418875Y-714000D01*
X+2389000Y-684125D01*
X+2389000Y-641875D01*
X+2418875Y-612000D01*
X+2461125Y-612000D01*
X+2491000Y-641875D01*
X+2461125Y-314000D02*
X+2418875Y-314000D01*
X+2389000Y-284125D01*
X+2389000Y-241875D01*
X+2418875Y-212000D01*
X+2461125Y-212000D01*
X+2491000Y-241875D01*
X+2491000Y-284125D01*
X+2461125Y-314000D01*
X+868355Y-603056D02*
X+869151Y-602260D01*
X+911400Y-602260D01*
X+941275Y-632135D01*
X+941275Y-674385D01*
X+911400Y-704259D01*
X+869151Y-704259D01*
X+839276Y-674385D01*
X+839276Y-632135D01*
X+840072Y-631339D01*
X+828732Y-620000D01*
X+792496Y-620000D01*
X+792496Y-724149D01*
X+580496Y-724149D01*
X+580496Y-612150D01*
X+616496Y-612150D01*
X+616496Y-591716D01*
X+628212Y-580000D01*
X+845300Y-580000D01*
X+868355Y-603056D01*
X+2538307Y-727320D02*
X+2538307Y-674255D01*
X+2575830Y-636733D01*
X+2628894Y-636733D01*
X+2666417Y-674255D01*
X+2666417Y-727320D01*
X+2628894Y-764842D01*
X+2575830Y-764842D01*
X+2538307Y-727320D01*
X+2539945Y-1831532D02*
X+2539945Y-1778468D01*
X+2577468Y-1740945D01*
X+2630532Y-1740945D01*
X+2668055Y-1778468D01*
X+2668055Y-1831532D01*
X+2630532Y-1869055D01*
X+2577468Y-1869055D01*
X+2539945Y-1831532D01*
X+487126Y-2026532D02*
X+487126Y-1973468D01*
X+524649Y-1935945D01*
X+577713Y-1935945D01*
X+615236Y-1973468D01*
X+615236Y-2026532D01*
X+577713Y-2064055D01*
X+524649Y-2064055D01*
X+487126Y-2026532D01*
X+2555000Y-900000D02*
X+2465000Y-900000D01*
X+2465000Y-770000D01*
X+2555000Y-770000D01*
X+2555000Y-900000D01*
X+2355000Y-900000D02*
X+2265000Y-900000D01*
X+2265000Y-770000D01*
X+2355000Y-770000D01*
X+2355000Y-900000D01*
X+2255000Y-900000D02*
X+2165000Y-900000D01*
X+2165000Y-770000D01*
X+2255000Y-770000D01*
X+2255000Y-900000D01*
X+2155000Y-900000D02*
X+2065000Y-900000D01*
X+2065000Y-770000D01*
X+2155000Y-770000D01*
X+2155000Y-900000D01*
X+2055000Y-900000D02*
X+1965000Y-900000D01*
X+1965000Y-770000D01*
X+2055000Y-770000D01*
X+2055000Y-900000D01*
X+2055000Y-1610000D02*
X+1965000Y-1610000D01*
X+1965000Y-1480000D01*
X+2055000Y-1480000D01*
X+2055000Y-1610000D01*
X+2155000Y-1610000D02*
X+2065000Y-1610000D01*
X+2065000Y-1480000D01*
X+2155000Y-1480000D01*
X+2155000Y-1610000D01*
X+2255000Y-1610000D02*
X+2165000Y-1610000D01*
X+2165000Y-1480000D01*
X+2255000Y-1480000D01*
X+2255000Y-1610000D01*
X+2355000Y-1610000D02*
X+2265000Y-1610000D01*
X+2265000Y-1480000D01*
X+2355000Y-1480000D01*
X+2355000Y-1610000D01*
X+2455000Y-1610000D02*
X+2365000Y-1610000D01*
X+2365000Y-1480000D01*
X+2455000Y-1480000D01*
X+2455000Y-1610000D01*
X+1244000Y-846125D02*
X+1244000Y-803875D01*
X+1273875Y-774000D01*
X+1316125Y-774000D01*
X+1346000Y-803875D01*
X+1346000Y-846125D01*
X+1316125Y-876000D01*
X+1273875Y-876000D01*
X+1244000Y-846125D01*
X+496441Y-749669D02*
X+373609Y-872500D01*
X+118610Y-872500D01*
X+77500Y-913610D01*
X+77500Y-934000D01*
X+49000Y-934000D01*
X+49000Y-1007110D01*
X+24000Y-1032110D01*
X+24000Y-831087D01*
X+382434Y-831087D01*
X+389008Y-825827D01*
X+491703Y-743671D01*
X+496441Y-733813D01*
X+496441Y-749669D01*
X+1560709Y+111007D02*
X+1601717Y+70000D01*
X+1583284Y+70000D01*
X+1551496Y+101788D01*
X+1551496Y+112166D01*
X+1560709Y+112166D01*
X+1560709Y+111007D01*
X+1486496Y+112166D02*
X+1511496Y+112166D01*
X+1511496Y+85220D01*
X+1551717Y+45000D01*
X+1483284Y+45000D01*
X+1453070Y+75213D01*
X+1453070Y+112166D01*
X+1478070Y+112166D01*
X+1478070Y+230001D01*
X+1486496Y+230001D01*
X+1486496Y+112166D01*
X+1388071Y+112166D02*
X+1413072Y+112166D01*
X+1413072Y+58645D01*
X+1451717Y+20000D01*
X+1383284Y+20000D01*
X+1354645Y+48638D01*
X+1354645Y+112166D01*
X+1379645Y+112166D01*
X+1379645Y+230001D01*
X+1388071Y+230001D01*
X+1388071Y+112166D01*
X+1289646Y+112166D02*
X+1314646Y+112166D01*
X+1314646Y+32070D01*
X+1351717Y-5000D01*
X+1283284Y-5000D01*
X+1256220Y+22064D01*
X+1256220Y+112166D01*
X+1281220Y+112166D01*
X+1281220Y+230001D01*
X+1289646Y+230001D01*
X+1289646Y+112166D01*
X+2030000Y+266716D02*
X+2030000Y-35000D01*
X+2020000Y-35000D01*
X+2020000Y+158284D01*
X+1981119Y+197165D01*
X+1674921Y+197165D01*
X+1674921Y+242165D01*
X+1600708Y+242165D01*
X+1600708Y+258283D01*
X+1588993Y+269999D01*
X+1129511Y+269999D01*
X+1117796Y+258283D01*
X+1117796Y+242165D01*
X+1092796Y+242165D01*
X+1092796Y+112166D01*
X+1182795Y+112166D01*
X+1182795Y+230001D01*
X+1191221Y+230001D01*
X+1191221Y+112166D01*
X+1216221Y+112166D01*
X+1216221Y+5495D01*
X+1256717Y-35000D01*
X+1195000Y-35000D01*
X+1195000Y-165000D01*
X+1220000Y-165000D01*
X+1220000Y-240653D01*
X+1143937Y-316716D01*
X+1143937Y-371339D01*
X+1139724Y-371339D01*
X+1139724Y-289370D01*
X+1045354Y-195000D01*
X+1048284Y-195000D01*
X+1060000Y-183284D01*
X+1060000Y-165000D01*
X+1085000Y-165000D01*
X+1085000Y-35000D01*
X+1067500Y-35000D01*
X+1067500Y+221390D01*
X+1031000Y+257890D01*
X+1031000Y+262841D01*
X+1013840Y+280000D01*
X+2016716Y+280000D01*
X+2030000Y+266716D01*
X+1185000Y-165000D02*
X+1160000Y-165000D01*
X+1160000Y-169000D01*
X+1162841Y-169000D01*
X+1181000Y-187159D01*
X+1181000Y-212841D01*
X+1162841Y-231000D01*
X+1137159Y-231000D01*
X+1119000Y-212841D01*
X+1119000Y-187159D01*
X+1120000Y-186159D01*
X+1120000Y-165000D01*
X+1095000Y-165000D01*
X+1095000Y-35000D01*
X+1185000Y-35000D01*
X+1185000Y-165000D01*
X+1470000Y-33284D02*
X+1470000Y-35000D01*
X+1409999Y-35000D01*
X+1409999Y-20000D01*
X+1456716Y-20000D01*
X+1470000Y-33284D01*
X+969000Y+262841D02*
X+969000Y+237159D01*
X+987159Y+219000D01*
X+992110Y+219000D01*
X+1012500Y+198610D01*
X+1012500Y-35000D01*
X+995000Y-35000D01*
X+995000Y-75000D01*
X+985000Y-75000D01*
X+985000Y-35000D01*
X+895000Y-35000D01*
X+895000Y-165000D01*
X+964646Y-165000D01*
X+954645Y-175000D01*
X+918841Y-175000D01*
X+912841Y-169000D01*
X+887159Y-169000D01*
X+870000Y-186160D01*
X+870000Y+266716D01*
X+883284Y+280000D01*
X+986160Y+280000D01*
X+969000Y+262841D01*
X+2055000Y-155000D02*
X+2045000Y-155000D01*
X+2045000Y-120000D01*
X+2055000Y-120000D01*
X+2055000Y-155000D01*
X+1980000Y+141716D02*
X+1980000Y-35000D01*
X+1955000Y-35000D01*
X+1955000Y-155000D01*
X+1945000Y-155000D01*
X+1945000Y-35000D01*
X+1920000Y-35000D01*
X+1920000Y+58284D01*
X+1883284Y+95000D01*
X+1633284Y+95000D01*
X+1616118Y+112166D01*
X+1674921Y+112166D01*
X+1674921Y+157166D01*
X+1964551Y+157166D01*
X+1980000Y+141716D01*
X+1020000Y-169646D02*
X+1015354Y-165000D01*
X+1020000Y-165000D01*
X+1020000Y-169646D01*
X+1470000Y-165000D02*
X+1470000Y-173284D01*
X+1501717Y-205000D01*
X+1433284Y-205000D01*
X+1409999Y-181716D01*
X+1409999Y-165000D01*
X+1470000Y-165000D01*
X+1470000Y-165000D01*
X+1295000Y-165000D02*
X+1370001Y-165000D01*
X+1370001Y-198284D01*
X+1416716Y-245000D01*
X+1541716Y-245000D01*
X+1555000Y-258284D01*
X+1555000Y-263506D01*
X+1537148Y-245654D01*
X+1494899Y-245654D01*
X+1471399Y-269154D01*
X+1347074Y-269154D01*
X+1284075Y-332153D01*
X+1284075Y-371339D01*
X+1266575Y-371339D01*
X+1266575Y-501338D01*
X+1356574Y-501338D01*
X+1356574Y-371339D01*
X+1339074Y-371339D01*
X+1339074Y-354933D01*
X+1369855Y-324153D01*
X+1471399Y-324153D01*
X+1494899Y-347653D01*
X+1537148Y-347653D01*
X+1555000Y-329801D01*
X+1555000Y-663506D01*
X+1537148Y-645654D01*
X+1494899Y-645654D01*
X+1470543Y-670009D01*
X+1371315Y-672500D01*
X+1341275Y-672500D01*
X+1341275Y-632135D01*
X+1311400Y-602260D01*
X+1269151Y-602260D01*
X+1255150Y-616261D01*
X+1240649Y-601759D01*
X+1240649Y-501338D01*
X+1258149Y-501338D01*
X+1258149Y-371339D01*
X+1183937Y-371339D01*
X+1183937Y-333284D01*
X+1260000Y-257221D01*
X+1260000Y-165000D01*
X+1285000Y-165000D01*
X+1285000Y-45000D01*
X+1295000Y-45000D01*
X+1295000Y-165000D01*
X+1089725Y-310079D02*
X+1089725Y-371339D01*
X+1070000Y-371339D01*
X+1070000Y-323841D01*
X+1081000Y-312841D01*
X+1081000Y-301354D01*
X+1089725Y-310079D01*
X+869000Y-212841D02*
X+875000Y-218841D01*
X+875000Y-464645D01*
X+859960Y-479685D01*
X+859960Y-372520D01*
X+834960Y-372520D01*
X+834960Y-243323D01*
X+869000Y-209283D01*
X+869000Y-212841D01*
X+830000Y-191716D02*
X+794961Y-226756D01*
X+794961Y-372520D01*
X+769961Y-372520D01*
X+769961Y-500000D01*
X+761535Y-500000D01*
X+761535Y-372520D01*
X+744035Y-372520D01*
X+744035Y-243556D01*
X+826200Y-161390D01*
X+826200Y+113307D01*
X+830000Y+113307D01*
X+830000Y-191716D01*
X+1143937Y-777779D02*
X+1116716Y-805000D01*
X+946000Y-805000D01*
X+946000Y-803875D01*
X+917124Y-775000D01*
X+1053283Y-775000D01*
X+1070000Y-758284D01*
X+1070000Y-501338D01*
X+1143937Y-501338D01*
X+1143937Y-777779D01*
X+905000Y-1327874D02*
X+866180Y-1327874D01*
X+866180Y-1317873D01*
X+905000Y-1317873D01*
X+905000Y-1327874D01*
X+760858Y-1339142D02*
X+766716Y-1345000D01*
X+781181Y-1345000D01*
X+781181Y-1405000D01*
X+758284Y-1405000D01*
X+745000Y-1391716D01*
X+745000Y-1323283D01*
X+760858Y-1339142D01*
X+177500Y-1300000D02*
X+177500Y-1311390D01*
X+196713Y-1330603D01*
X+196713Y-1357056D01*
X+188544Y-1365226D01*
X+188544Y-1394774D01*
X+199213Y-1405444D01*
X+199213Y-1533716D01*
X+193283Y-1539645D01*
X+193283Y-1620000D01*
X+101173Y-1620000D01*
X+77500Y-1596326D01*
X+77500Y-1056390D01*
X+87890Y-1046000D01*
X+177500Y-1046000D01*
X+177500Y-1300000D01*
X+90119Y-1344331D02*
X+161456Y-1344331D01*
X+161456Y-1415669D01*
X+90119Y-1415669D01*
X+90119Y-1344331D01*
X+1472500Y-1735000D02*
X+1468425Y-1735000D01*
X+1468425Y-975415D01*
X+1472500Y-971340D01*
X+1472500Y-1735000D01*
X+1680001Y-8284D02*
X+1680001Y-35000D01*
X+1595000Y-35000D01*
X+1595000Y-165000D01*
X+1680001Y-165000D01*
X+1680001Y-1783284D01*
X+1701717Y-1805001D01*
X+1683284Y-1805001D01*
X+1670000Y-1791716D01*
X+1670000Y-216716D01*
X+1633284Y-180000D01*
X+1533284Y-180000D01*
X+1518283Y-165000D01*
X+1585000Y-165000D01*
X+1585000Y-35000D01*
X+1510000Y-35000D01*
X+1510000Y-16716D01*
X+1488283Y+5000D01*
X+1666716Y+5000D01*
X+1680001Y-8284D01*
X+2380000Y-1833284D02*
X+2380000Y-1935000D01*
X+2370000Y-1935000D01*
X+2370000Y-1841716D01*
X+2348283Y-1819999D01*
X+2366716Y-1819999D01*
X+2380000Y-1833284D01*
X+1630000Y-233284D02*
X+1630000Y-1808284D01*
X+1666716Y-1844999D01*
X+2316716Y-1844999D01*
X+2330000Y-1858284D01*
X+2330000Y-1935000D01*
X+2320000Y-1935000D01*
X+2320000Y-1891716D01*
X+2283284Y-1855000D01*
X+1608284Y-1855000D01*
X+1595000Y-1841716D01*
X+1595000Y-241716D01*
X+1573283Y-220000D01*
X+1616716Y-220000D01*
X+1630000Y-233284D01*
D14*
X+1300000Y-2000000D03*
X+1400000Y-2000000D03*
X+1500000Y-2000000D03*
X+1600000Y-2000000D03*
X+1700000Y-2000000D03*
X+1800000Y-2000000D03*
X+2000000Y-2000000D03*
X+2100000Y-2000000D03*
X+2200000Y-2000000D03*
X+2300000Y-2000000D03*
X+2400000Y-2000000D03*
X+2500000Y-2000000D03*
X+940000Y-100000D03*
X+1040000Y-100000D03*
X+1140000Y-100000D03*
X+1240000Y-100000D03*
X+1340000Y-100000D03*
X+1440000Y-100000D03*
X+1540000Y-100000D03*
X+1640000Y-100000D03*
X+1800000Y-100000D03*
X+1900000Y-100000D03*
X+2000000Y-100000D03*
X+2100000Y-100000D03*
X+2200000Y-100000D03*
X+2300000Y-100000D03*
X+2400000Y-100000D03*
X+2500000Y-100000D03*
X+601850Y+178307D03*
X+700276Y+178307D03*
X+798701Y+178307D03*
X+2111126Y+175244D03*
X+2209551Y+175244D03*
X+2307976Y+175244D03*
X+143937Y-2001142D03*
X+242362Y-2001142D03*
X+340787Y-2001142D03*
X+814929Y-1999929D03*
X+913354Y-1999929D03*
X+1011780Y-1999929D03*
X+1887638Y-435150D03*
X+1986063Y-435150D03*
X+2084488Y-435150D03*
X+2182913Y-435150D03*
X+618110Y-437520D03*
X+716535Y-437520D03*
X+814961Y-437520D03*
X+1114724Y-436339D03*
X+1213150Y-436339D03*
X+1311575Y-436339D03*
X+1345000Y-1800000D03*
X+1443426Y-1800000D03*
D15*
X+846181Y-1172873D03*
X+846181Y-1272873D03*
X+846181Y-1372873D03*
X+846181Y-1472873D03*
X+846181Y-1572873D03*
X+846181Y-1672873D03*
D16*
X+1516024Y-296654D03*
X+1516024Y-696654D03*
X+2440000Y-663000D03*
X+2440000Y-263000D03*
D17*
X+636496Y-668150D03*
X+736496Y-668150D03*
D14*
X+1137795Y+177165D03*
X+1236220Y+177165D03*
X+1334646Y+177165D03*
X+1433071Y+177165D03*
X+1531496Y+177165D03*
X+1629921Y+177165D03*
D16*
X+890276Y-653260D03*
X+1290276Y-653260D03*
D14*
X+2510000Y-835000D03*
X+2410000Y-835000D03*
X+2310000Y-835000D03*
X+2210000Y-835000D03*
X+2110000Y-835000D03*
X+2010000Y-835000D03*
X+1910000Y-835000D03*
X+1810000Y-835000D03*
X+1810000Y-1545000D03*
X+1910000Y-1545000D03*
X+2010000Y-1545000D03*
X+2110000Y-1545000D03*
X+2210000Y-1545000D03*
X+2310000Y-1545000D03*
X+2410000Y-1545000D03*
X+2510000Y-1545000D03*
D17*
X+118283Y-1676000D03*
X+218283Y-1676000D03*
X+318283Y-1676000D03*
X+105000Y-990000D03*
X+205000Y-990000D03*
X+305000Y-990000D03*
D18*
X+125787Y-1380000D03*
D19*
X+125787Y-1380000D03*
D70*
X+224213Y-1380000D03*
D18*
X+450787Y-1205000D03*
D19*
X+450787Y-1205000D03*
D70*
X+549213Y-1205000D03*
D16*
X+895000Y-825000D03*
X+1295000Y-825000D03*
X+515000Y-965000D03*
X+915000Y-965000D03*
D20*
X+472441Y+393701D02*
X+2503937Y+393701D01*
X+0Y-807087D02*
X+0Y-2295276D01*
X+2602362Y-2295276D01*
X+2602362Y+295276D02*
X+2602362Y-511811D01*
X+2696850Y-629921D02*
X+2696850Y-1968504D01*
X+0Y-807087D02*
X+374016Y-807087D01*
X+472441Y-728346D02*
X+472441Y+393701D01*
X+2602362Y-2047244D02*
X+2602362Y-2295276D01*
X+2700787Y-1964567D02*
X+2602362Y-2047244D01*
X+2602362Y-511811D02*
X+2700787Y-629921D01*
X+472441Y-728346D02*
X+374016Y-807087D01*
X+2606299Y+291339D02*
X+2507874Y+397638D01*
M02*
