G04 PROTEUS RS274X GERBER FILE*
%FSLAX26Y26*%
%MOIN*%
G01*
%ADD24C,0.050000*%
%AMPPAD017*
4,1,8,
-0.020071,0.055000,
0.020071,0.055000,
0.035000,0.040071,
0.035000,-0.040071,
0.020071,-0.055000,
-0.020071,-0.055000,
-0.035000,-0.040071,
-0.035000,0.040071,
-0.020071,0.055000,
0*%
%ADD25PPAD017*%
%AMPPAD018*
4,1,8,
0.055000,0.020071,
0.055000,-0.020071,
0.040071,-0.035000,
-0.040071,-0.035000,
-0.055000,-0.020071,
-0.055000,0.020071,
-0.040071,0.035000,
0.040071,0.035000,
0.055000,0.020071,
0*%
%ADD26PPAD018*%
%ADD27C,0.090000*%
%AMPPAD020*
4,1,48,
-0.040000,0.050000,
0.040000,0.050000,
0.041039,0.049950,
0.042044,0.049801,
0.043011,0.049559,
0.044812,0.048814,
0.046404,0.047750,
0.047750,0.046403,
0.048813,0.044812,
0.049559,0.043011,
0.049801,0.042044,
0.049950,0.041039,
0.050000,0.040000,
0.050000,-0.040000,
0.049950,-0.041039,
0.049801,-0.042044,
0.049559,-0.043011,
0.048813,-0.044812,
0.047750,-0.046403,
0.046404,-0.047750,
0.044812,-0.048814,
0.043011,-0.049559,
0.042044,-0.049801,
0.041039,-0.049950,
0.040000,-0.050000,
-0.040000,-0.050000,
-0.041039,-0.049950,
-0.042044,-0.049801,
-0.043011,-0.049559,
-0.044812,-0.048814,
-0.046404,-0.047750,
-0.047750,-0.046403,
-0.048813,-0.044812,
-0.049559,-0.043011,
-0.049801,-0.042044,
-0.049950,-0.041039,
-0.050000,-0.040000,
-0.050000,0.040000,
-0.049950,0.041039,
-0.049801,0.042044,
-0.049559,0.043011,
-0.048813,0.044812,
-0.047750,0.046403,
-0.046404,0.047750,
-0.044812,0.048814,
-0.043011,0.049559,
-0.042044,0.049801,
-0.041039,0.049950,
-0.040000,0.050000,
0*%
%ADD28PPAD020*%
%AMPPAD021*
4,1,4,
-0.020669,0.020669,
0.020669,0.020669,
0.020669,-0.020669,
-0.020669,-0.020669,
-0.020669,0.020669,
0*%
%ADD29PPAD021*%
%ADD70C,0.041339*%
%AMPPAD022*
4,1,4,
0.012000,-0.012000,
-0.012000,-0.012000,
-0.012000,0.012000,
0.012000,0.012000,
0.012000,-0.012000,
0*%
%ADD72PPAD022*%
%ADD20C,0.008000*%
D24*
X+1350000Y-1200000D03*
X+1450000Y-950000D03*
X+1150000Y-200000D03*
X+1050000Y-300000D03*
X+1775000Y-250000D03*
X+1000000Y+250000D03*
X+900000Y-200000D03*
X+2125000Y+75000D03*
D25*
X+1300000Y-2000000D03*
X+1400000Y-2000000D03*
X+1500000Y-2000000D03*
X+1600000Y-2000000D03*
X+1700000Y-2000000D03*
X+1800000Y-2000000D03*
X+2000000Y-2000000D03*
X+2100000Y-2000000D03*
X+2200000Y-2000000D03*
X+2300000Y-2000000D03*
X+2400000Y-2000000D03*
X+2500000Y-2000000D03*
X+940000Y-100000D03*
X+1040000Y-100000D03*
X+1140000Y-100000D03*
X+1240000Y-100000D03*
X+1340000Y-100000D03*
X+1440000Y-100000D03*
X+1540000Y-100000D03*
X+1640000Y-100000D03*
X+1800000Y-100000D03*
X+1900000Y-100000D03*
X+2000000Y-100000D03*
X+2100000Y-100000D03*
X+2200000Y-100000D03*
X+2300000Y-100000D03*
X+2400000Y-100000D03*
X+2500000Y-100000D03*
X+601850Y+178307D03*
X+700276Y+178307D03*
X+798701Y+178307D03*
X+2111126Y+175244D03*
X+2209551Y+175244D03*
X+2307976Y+175244D03*
X+143937Y-2001142D03*
X+242362Y-2001142D03*
X+340787Y-2001142D03*
X+814929Y-1999929D03*
X+913354Y-1999929D03*
X+1011780Y-1999929D03*
X+1887638Y-435150D03*
X+1986063Y-435150D03*
X+2084488Y-435150D03*
X+2182913Y-435150D03*
X+618110Y-437520D03*
X+716535Y-437520D03*
X+814961Y-437520D03*
X+1114724Y-436339D03*
X+1213150Y-436339D03*
X+1311575Y-436339D03*
X+1345000Y-1800000D03*
X+1443426Y-1800000D03*
D26*
X+846181Y-1172873D03*
X+846181Y-1272873D03*
X+846181Y-1372873D03*
X+846181Y-1472873D03*
X+846181Y-1572873D03*
X+846181Y-1672873D03*
D27*
X+1516024Y-296654D03*
X+1516024Y-696654D03*
X+2440000Y-663000D03*
X+2440000Y-263000D03*
D28*
X+636496Y-668150D03*
X+736496Y-668150D03*
D25*
X+1137795Y+177165D03*
X+1236220Y+177165D03*
X+1334646Y+177165D03*
X+1433071Y+177165D03*
X+1531496Y+177165D03*
X+1629921Y+177165D03*
D27*
X+890276Y-653260D03*
X+1290276Y-653260D03*
D25*
X+2510000Y-835000D03*
X+2410000Y-835000D03*
X+2310000Y-835000D03*
X+2210000Y-835000D03*
X+2110000Y-835000D03*
X+2010000Y-835000D03*
X+1910000Y-835000D03*
X+1810000Y-835000D03*
X+1810000Y-1545000D03*
X+1910000Y-1545000D03*
X+2010000Y-1545000D03*
X+2110000Y-1545000D03*
X+2210000Y-1545000D03*
X+2310000Y-1545000D03*
X+2410000Y-1545000D03*
X+2510000Y-1545000D03*
D28*
X+118283Y-1676000D03*
X+218283Y-1676000D03*
X+318283Y-1676000D03*
X+105000Y-990000D03*
X+205000Y-990000D03*
X+305000Y-990000D03*
D29*
X+125787Y-1380000D03*
D70*
X+224213Y-1380000D03*
D29*
X+450787Y-1205000D03*
D70*
X+549213Y-1205000D03*
D72*
X+425000Y-1470000D03*
X+425000Y-1434567D03*
X+265000Y-1135000D03*
X+265000Y-1170433D03*
D27*
X+895000Y-825000D03*
X+1295000Y-825000D03*
X+515000Y-965000D03*
X+915000Y-965000D03*
D20*
X+472441Y+393701D02*
X+2503937Y+393701D01*
X+0Y-807087D02*
X+0Y-2295276D01*
X+2602362Y-2295276D01*
X+2602362Y+295276D02*
X+2602362Y-511811D01*
X+2696850Y-629921D02*
X+2696850Y-1968504D01*
X+0Y-807087D02*
X+374016Y-807087D01*
X+472441Y-728346D02*
X+472441Y+393701D01*
X+2602362Y-2047244D02*
X+2602362Y-2295276D01*
X+2700787Y-1964567D02*
X+2602362Y-2047244D01*
X+2602362Y-511811D02*
X+2700787Y-629921D01*
X+472441Y-728346D02*
X+374016Y-807087D01*
X+2606299Y+291339D02*
X+2507874Y+397638D01*
M02*
