G04 PROTEUS RS274X GERBER FILE*
%FSLAX26Y26*%
%MOIN*%
G01*
%ADD10C,0.010000*%
%ADD11C,0.020000*%
%ADD12C,0.025000*%
%ADD13C,0.030000*%
%AMDIL004*
4,1,8,
-0.030000,0.038000,-0.018000,0.050000,0.018000,0.050000,0.030000,0.038000,0.030000,-0.038000,
0.018000,-0.050000,-0.018000,-0.050000,-0.030000,-0.038000,-0.030000,0.038000,
0*%
%ADD14DIL004*%
%AMDIL005*
4,1,8,
-0.050000,0.018000,-0.038000,0.030000,0.038000,0.030000,0.050000,0.018000,0.050000,-0.018000,
0.038000,-0.030000,-0.038000,-0.030000,-0.050000,-0.018000,-0.050000,0.018000,
0*%
%ADD15DIL005*%
%ADD16C,0.070000*%
%ADD17R,0.080000X0.080000*%
%ADD18R,0.041339X0.041339*%
%ADD19C,0.010000*%
%ADD70C,0.041339*%
%ADD71R,0.024000X0.024000*%
%ADD20C,0.008000*%
D10*
X+846181Y-1272873D02*
X+1250000Y-1272873D01*
X+1295000Y-1227873D01*
X+1295000Y-825000D01*
X+2000000Y-2000000D02*
X+2000000Y-2075000D01*
X+814929Y-2075000D01*
X+814929Y-1999929D01*
X+2100000Y-2000000D02*
X+2100000Y-2100000D01*
X+2075000Y-2125000D01*
X+175000Y-2125000D01*
X+143937Y-2093937D01*
X+143937Y-2001142D01*
D11*
X+1350000Y-1200000D02*
X+1975000Y-1200000D01*
X+2010000Y-1165000D01*
X+2010000Y-835000D01*
D10*
X+2010000Y-835000D01*
D11*
X+1450000Y-950000D02*
X+1775000Y-950000D01*
X+1810000Y-915000D01*
X+1810000Y-835000D01*
D10*
X+1810000Y-835000D01*
X+1440000Y-100000D02*
X+1440000Y-725000D01*
X+1465000Y-750000D01*
X+2310000Y-750000D01*
X+2310000Y-835000D01*
X+1340000Y-100000D02*
X+1340000Y-300000D01*
X+1375000Y-335000D01*
X+1375000Y-575000D01*
X+1350000Y-600000D01*
X+804646Y-600000D01*
X+736496Y-668150D01*
X+1050000Y-300000D02*
X+1050000Y-225000D01*
X+1075000Y-200000D01*
X+1150000Y-200000D01*
X+2200000Y-100000D02*
X+2200000Y-221213D01*
X+1986063Y-435150D01*
X+1775000Y-250000D02*
X+1675000Y-250000D01*
X+1640000Y-215000D01*
X+1640000Y-100000D01*
X+1540000Y-100000D02*
X+1540000Y-25000D01*
X+2350000Y-25000D01*
X+2350000Y-223000D01*
X+2390000Y-263000D01*
X+2440000Y-263000D01*
D11*
X+2111126Y+175244D02*
X+2111126Y+250000D01*
X+1000000Y+250000D01*
X+700276Y+250000D01*
X+700276Y+178307D01*
X+205000Y-990000D02*
X+205000Y-1170433D01*
X+265000Y-1170433D01*
D12*
X+224213Y-1380000D02*
X+259213Y-1415000D01*
X+405433Y-1415000D01*
X+425000Y-1434567D01*
D10*
X+1011780Y-1999929D02*
X+1011780Y-1925000D01*
X+775000Y-1925000D01*
D12*
X+716535Y-437520D02*
X+716535Y-525000D01*
X+1213150Y-525000D01*
X+1213150Y-436339D01*
X+1516024Y-696654D02*
X+1516024Y-678654D01*
X+1644134Y-678654D01*
X+1887638Y-435150D01*
D10*
X+775000Y-1925000D02*
X+775000Y-1915000D01*
X+340787Y-1915000D01*
X+340787Y-2001142D01*
D12*
X+325000Y-1525000D02*
X+270787Y-1525000D01*
X+125787Y-1380000D01*
X+325000Y-1525000D02*
X+350000Y-1500000D01*
X+425000Y-1500000D01*
X+325000Y-1525000D02*
X+325000Y-1550000D01*
X+318283Y-1556717D01*
X+318283Y-1676000D01*
X+425000Y-1500000D02*
X+500000Y-1500000D01*
X+500000Y-1470000D01*
X+425000Y-1470000D01*
X+265000Y-1135000D02*
X+380787Y-1135000D01*
X+450787Y-1205000D01*
X+305000Y-990000D02*
X+305000Y-1050000D01*
X+265000Y-1090000D01*
X+265000Y-1135000D01*
X+118283Y-1676000D02*
X+118283Y-1850000D01*
X+143283Y-1875000D01*
X+1775000Y-1875000D01*
X+1800000Y-1900000D01*
X+1800000Y-2000000D01*
X+325000Y-1525000D02*
X+560000Y-1760000D01*
X+1025000Y-1760000D01*
X+1433078Y-1351922D01*
X+2475000Y-1351922D01*
X+2510000Y-1316922D01*
X+2510000Y-835000D01*
D11*
X+305000Y-990000D02*
X+510000Y-785000D01*
X+510000Y+283750D01*
X+575000Y+300000D01*
X+2175000Y+300000D01*
X+2209551Y+265449D01*
X+2209551Y+175244D01*
D12*
X+900000Y-200000D02*
X+700000Y-200000D01*
X+555000Y-345000D01*
X+555000Y-845000D01*
X+629298Y-919298D01*
X+629298Y-1439999D01*
X+662172Y-1472873D01*
X+846181Y-1472873D01*
X+2182913Y-435150D02*
X+2500000Y-435150D01*
X+2565000Y-370150D01*
X+2565000Y+10000D01*
X+2500000Y+75000D01*
X+2175000Y+75000D01*
D11*
X+2125000Y+75000D01*
D13*
X+1350000Y-1200000D03*
X+1450000Y-950000D03*
X+1150000Y-200000D03*
X+1050000Y-300000D03*
X+1775000Y-250000D03*
X+1000000Y+250000D03*
X+900000Y-200000D03*
X+2125000Y+75000D03*
D14*
X+1300000Y-2000000D03*
X+1400000Y-2000000D03*
X+1500000Y-2000000D03*
X+1600000Y-2000000D03*
X+1700000Y-2000000D03*
X+1800000Y-2000000D03*
X+2000000Y-2000000D03*
X+2100000Y-2000000D03*
X+2200000Y-2000000D03*
X+2300000Y-2000000D03*
X+2400000Y-2000000D03*
X+2500000Y-2000000D03*
X+940000Y-100000D03*
X+1040000Y-100000D03*
X+1140000Y-100000D03*
X+1240000Y-100000D03*
X+1340000Y-100000D03*
X+1440000Y-100000D03*
X+1540000Y-100000D03*
X+1640000Y-100000D03*
X+1800000Y-100000D03*
X+1900000Y-100000D03*
X+2000000Y-100000D03*
X+2100000Y-100000D03*
X+2200000Y-100000D03*
X+2300000Y-100000D03*
X+2400000Y-100000D03*
X+2500000Y-100000D03*
X+601850Y+178307D03*
X+700276Y+178307D03*
X+798701Y+178307D03*
X+2111126Y+175244D03*
X+2209551Y+175244D03*
X+2307976Y+175244D03*
X+143937Y-2001142D03*
X+242362Y-2001142D03*
X+340787Y-2001142D03*
X+814929Y-1999929D03*
X+913354Y-1999929D03*
X+1011780Y-1999929D03*
X+1887638Y-435150D03*
X+1986063Y-435150D03*
X+2084488Y-435150D03*
X+2182913Y-435150D03*
X+618110Y-437520D03*
X+716535Y-437520D03*
X+814961Y-437520D03*
X+1114724Y-436339D03*
X+1213150Y-436339D03*
X+1311575Y-436339D03*
X+1345000Y-1800000D03*
X+1443426Y-1800000D03*
D15*
X+846181Y-1172873D03*
X+846181Y-1272873D03*
X+846181Y-1372873D03*
X+846181Y-1472873D03*
X+846181Y-1572873D03*
X+846181Y-1672873D03*
D16*
X+1516024Y-296654D03*
X+1516024Y-696654D03*
X+2440000Y-663000D03*
X+2440000Y-263000D03*
D17*
X+636496Y-668150D03*
X+736496Y-668150D03*
D14*
X+1137795Y+177165D03*
X+1236220Y+177165D03*
X+1334646Y+177165D03*
X+1433071Y+177165D03*
X+1531496Y+177165D03*
X+1629921Y+177165D03*
D16*
X+890276Y-653260D03*
X+1290276Y-653260D03*
D14*
X+2510000Y-835000D03*
X+2410000Y-835000D03*
X+2310000Y-835000D03*
X+2210000Y-835000D03*
X+2110000Y-835000D03*
X+2010000Y-835000D03*
X+1910000Y-835000D03*
X+1810000Y-835000D03*
X+1810000Y-1545000D03*
X+1910000Y-1545000D03*
X+2010000Y-1545000D03*
X+2110000Y-1545000D03*
X+2210000Y-1545000D03*
X+2310000Y-1545000D03*
X+2410000Y-1545000D03*
X+2510000Y-1545000D03*
D17*
X+118283Y-1676000D03*
X+218283Y-1676000D03*
X+318283Y-1676000D03*
X+105000Y-990000D03*
X+205000Y-990000D03*
X+305000Y-990000D03*
D18*
X+125787Y-1380000D03*
D19*
X+125787Y-1380000D03*
D70*
X+224213Y-1380000D03*
D18*
X+450787Y-1205000D03*
D19*
X+450787Y-1205000D03*
D70*
X+549213Y-1205000D03*
D71*
X+425000Y-1470000D03*
X+425000Y-1434567D03*
X+265000Y-1135000D03*
X+265000Y-1170433D03*
D16*
X+895000Y-825000D03*
X+1295000Y-825000D03*
X+515000Y-965000D03*
X+915000Y-965000D03*
D20*
X+472441Y+393701D02*
X+2503937Y+393701D01*
X+0Y-807087D02*
X+0Y-2295276D01*
X+2602362Y-2295276D01*
X+2602362Y+295276D02*
X+2602362Y-511811D01*
X+2696850Y-629921D02*
X+2696850Y-1968504D01*
X+0Y-807087D02*
X+374016Y-807087D01*
X+472441Y-728346D02*
X+472441Y+393701D01*
X+2602362Y-2047244D02*
X+2602362Y-2295276D01*
X+2700787Y-1964567D02*
X+2602362Y-2047244D01*
X+2602362Y-511811D02*
X+2700787Y-629921D01*
X+472441Y-728346D02*
X+374016Y-807087D01*
X+2606299Y+291339D02*
X+2507874Y+397638D01*
M02*
